<svg viewBox="0 0 42.666668 42.666668" height="42.666668" width="42.666668" xml:space="preserve"><defs id="defs6"><linearGradient id="linearGradient4569" osb:paint="solid"><stop style="stop-color:#4aaf48;stop-opacity:1;" offset="0" id="stop4567" /></linearGradient><clipPath id="clipPath18" clipPathUnits="userSpaceOnUse"><path id="path16" d="m 5.334,31.875 c -2.872,0 -5.209,-2.337 -5.209,-5.209 v 0 -21.332 c 0,-2.872 2.337,-5.209 5.209,-5.209 v 0 h 21.333 c 2.872,0 5.208,2.337 5.208,5.209 v 0 21.332 c 0,2.872 -2.336,5.209 -5.208,5.209 v 0 z" /></clipPath><linearGradient id="linearGradient32" spreadMethod="pad" gradientTransform="matrix(0,-31.274704,-31.274704,0,16,31.709473)" gradientUnits="userSpaceOnUse" y2="0" x2="1" y1="0" x1="0"><stop id="stop24" offset="0" style="stop-opacity:1;stop-color:#363436" /><stop id="stop26" offset="0.300613" style="stop-opacity:1;stop-color:#363436" /><stop id="stop28" offset="0.46370963" style="stop-opacity:1;stop-color:#363436" /><stop id="stop30" offset="1" style="stop-opacity:1;stop-color:#332f2f" /></linearGradient><clipPath id="clipPath42" clipPathUnits="userSpaceOnUse"><path id="path40" d="M 0,32 H 32 V 0 H 0 Z" /></clipPath><clipPath id="clipPath54" clipPathUnits="userSpaceOnUse"><path id="path52" d="M 0,32 H 32 V 0 H 0 Z" /></clipPath><clipPath id="clipPath58" clipPathUnits="userSpaceOnUse"><path id="path56" d="M 31,5.334 C 31,2.943 29.057,1 26.667,1 H 5.334 C 2.944,1 1,2.943 1,5.334 V 26.666 C 1,29.055 2.944,31 5.334,31 H 26.667 C 29.057,31 31,29.055 31,26.666 Z M 26.667,32 H 5.334 C 2.4,32 0,29.6 0,26.666 V 5.334 C 0,2.398 2.4,0 5.334,0 H 26.667 C 29.601,0 32,2.398 32,5.334 V 26.666 C 32,29.6 29.601,32 26.667,32" /></clipPath><linearGradient id="linearGradient64" spreadMethod="pad" gradientTransform="matrix(0,-31.520966,-31.520966,0,16,31.833496)" gradientUnits="userSpaceOnUse" y2="0" x2="1" y1="0" x1="0"><stop id="stop60" offset="0" style="stop-opacity:1;stop-color:#a8acaf" /><stop id="stop62" offset="1" style="stop-opacity:1;stop-color:#8b9298" /></linearGradient><clipPath id="clipPath86" clipPathUnits="userSpaceOnUse"><path id="path84" d="M 1,31 H 31 V 25.666 H 1 Z" /></clipPath><clipPath id="clipPath90" clipPathUnits="userSpaceOnUse"><path id="path88" d="M 1,31 H 31 V 25.666 H 1 Z" /></clipPath><clipPath id="clipPath94" clipPathUnits="userSpaceOnUse"><path id="path92" d="M 26.667,31 H 5.334 C 2.944,31 1,29.055 1,26.666 v -1 C 1,28.055 2.944,30 5.334,30 H 26.667 C 29.057,30 31,28.055 31,25.666 v 1 C 31,29.055 29.057,31 26.667,31" /></clipPath><linearGradient id="linearGradient100" spreadMethod="pad" gradientTransform="matrix(0,-5.2541351,-5.2541351,0,19.454736,31.191516)" gradientUnits="userSpaceOnUse" y2="0" x2="1" y1="0" x1="0"><stop id="stop96" offset="0" style="stop-opacity:1;stop-color:#ffffff" /><stop id="stop98" offset="1" style="stop-opacity:1;stop-color:#000000" /></linearGradient><clipPath id="clipPath130" clipPathUnits="userSpaceOnUse"><path id="path128" d="M 1.01563,31.0059 H 31.0156 V 1.00586 H 1.01563 Z" /></clipPath><clipPath id="clipPath134" clipPathUnits="userSpaceOnUse"><path id="path132" d="m 30.016,5.34 c 0,-1.838 -1.495,-3.334 -3.333,-3.334 H 5.35 c -1.838,0 -3.334,1.496 -3.334,3.334 v 21.332 c 0,1.838 1.496,3.334 3.334,3.334 h 21.333 c 1.838,0 3.333,-1.496 3.333,-3.334 z M 26.683,31.006 H 5.35 c -2.39,0 -4.334,-1.945 -4.334,-4.334 V 5.34 C 1.016,2.949 2.96,1.006 5.35,1.006 h 21.333 c 2.389,0 4.333,1.943 4.333,4.334 v 21.332 c 0,2.389 -1.944,4.334 -4.333,4.334" /></clipPath><linearGradient id="linearGradient140" spreadMethod="pad" gradientTransform="matrix(0,17.015549,17.015549,0,16.015625,0.8808594)" gradientUnits="userSpaceOnUse" y2="0" x2="1" y1="0" x1="0"><stop id="stop136" offset="0" style="stop-opacity:1;stop-color:#ffffff" /><stop id="stop138" offset="1" style="stop-opacity:1;stop-color:#000000" /></linearGradient><clipPath id="clipPath162" clipPathUnits="userSpaceOnUse"><path id="path160" d="M 5.72363,25 H 26.2593 V 5.35596 H 5.72363 Z" /></clipPath><clipPath id="clipPath166" clipPathUnits="userSpaceOnUse"><path id="path164" d="M 5.724,15.91 7.146,19.92 14,17.268 V 25 h 4 v -7.732 l 6.76,2.652 1.499,-4.01 -7.027,-2.347 4.324,-5.799 -3.27,-2.408 -4.379,6.049 -4.199,-6.049 -3.454,2.408 4.319,5.799 z" /></clipPath><linearGradient id="linearGradient172" spreadMethod="pad" gradientTransform="matrix(0,19.644043,19.644043,0,15.991699,5.355957)" gradientUnits="userSpaceOnUse" y2="0" x2="1" y1="0" x1="0"><stop id="stop168" offset="0" style="stop-opacity:1;stop-color:#808080" /><stop id="stop170" offset="1" style="stop-opacity:1;stop-color:#e6e6e6" /></linearGradient><clipPath id="clipPath194" clipPathUnits="userSpaceOnUse"><path id="path192" d="m 14,26 v -7.568 l -6.855,2.652 -1.421,-4.01 6.849,-2.347 -4.319,-5.799 3.454,-2.408 4.2,6.048 4.378,-6.048 3.27,2.408 -4.324,5.799 7.027,2.347 -1.499,4.01 L 18,18.432 V 26 Z" /></clipPath><linearGradient id="linearGradient204" spreadMethod="pad" gradientTransform="matrix(0,19.47998,19.47998,0,15.991699,6.5200195)" gradientUnits="userSpaceOnUse" y2="0" x2="1" y1="0" x1="0"><stop id="stop200" offset="0" style="stop-opacity:1;stop-color:#d9d9d9" /><stop id="stop202" offset="1" style="stop-opacity:1;stop-color:#fffffe" /></linearGradient></defs><g clip-path="url(#clipPath18)" id="g14" style="fill-opacity:1;stroke-width:0.99222988;" transform="matrix(1.3437746,0,0,-1.3437746,-0.16797182,42.83464)"><g id="g20" style="fill-opacity:1;stroke-width:0.99222988;"><g id="g22" style="fill-opacity:1;stroke-width:0.99222988;"><path id="path34" transform="matrix(0.75000002,0,0,-0.75000002,0,32.000001)" d="m 7.1113281,0.16601562 c -3.8293332,0 -6.94531247,3.11597928 -6.94531248,6.94531248 V 35.554688 C 0.16601562,39.384021 3.2819949,42.5 7.1113281,42.5 H 35.556641 C 39.385974,42.5 42.5,39.384021 42.5,35.554688 V 7.1113281 C 42.5,3.2819949 39.385974,0.16601562 35.556641,0.16601562 Z M 18.666016,8 H 24 v 10.089844 l 9.013672,-3.535156 1.998047,5.345703 -9.369141,3.130859 5.765625,7.730469 -4.359375,3.210937 -5.83789,-8.0625 -5.59961,8.0625 -4.605469,-3.210937 5.757813,-7.730469 -9.1308595,-3.130859 1.8945313,-5.345703 9.1386722,3.535156 z" style="fill-opacity:1;stroke:none;stroke-width:1.32297313;" /></g></g></g><g id="g188" style="fill:#ffffff;fill-opacity:1" transform="matrix(1.3333333,0,0,-1.3333333,0,42.666667)"><g id="g190" clip-path="url(#clipPath194)" style="fill:#ffffff;fill-opacity:1"><g id="g196" style="fill:#ffffff;fill-opacity:1"><g id="g198" style="fill:#ffffff;fill-opacity:1" /></g></g></g></svg>
