<svg width="20" viewBox="0 0 216.4144 232.00976"><path style="fill-opacity:1;stroke-width:1" d="m 215.67464,96.14215 v 94.18492 H 178.36039 V 98.91053 c 0,-19.27049 -8.10809,-29.051595 -24.32622,-29.051595 -17.93171,0 -26.91881,11.602867 -26.91881,34.545865 v 50.0376 H 90.021344 v -50.0376 c 0,-22.942998 -8.989034,-34.545865 -26.920737,-34.545865 -16.218126,0 -24.326224,9.781105 -24.326224,29.051605 v 91.41653 H 1.4601365 V 96.14215 c 0,-19.249243 4.9011777,-34.545862 14.7460335,-45.862811 10.152026,-11.316948 23.447219,-17.118382 39.951263,-17.118382 19.094694,0 33.554811,7.33921 43.115681,22.01956 l 9.294276,15.580606 9.2962,-15.580606 c 9.55894,-14.68035 24.01906,-22.01956 43.11569,-22.01956 16.50211,0 29.7973,5.801434 39.95126,17.118382 9.84292,11.316949 14.7441,26.613568 14.7441,45.862811" /></svg>
