<?xml version="1.0" encoding="UTF-8" standalone="no"?>
<svg
   xmlns:dc="http://purl.org/dc/elements/1.1/"
   xmlns:cc="http://creativecommons.org/ns#"
   xmlns:rdf="http://www.w3.org/1999/02/22-rdf-syntax-ns#"
   xmlns:svg="http://www.w3.org/2000/svg"
   xmlns="http://www.w3.org/2000/svg"
   height="15.997935"
   width="16.000002"
   version="1.1"
   id="svg2989"
   viewBox="0 -256 16.000002 15.997935">
  <metadata
     id="metadata2999">
    <rdf:RDF>
      <cc:Work
         rdf:about="">
        <dc:format>image/svg+xml</dc:format>
        <dc:type
           rdf:resource="http://purl.org/dc/dcmitype/StillImage" />
        <dc:title></dc:title>
      </cc:Work>
    </rdf:RDF>
  </metadata>
  <defs
     id="defs2997" />
  <path
     d="m 4.8176878,-242.91127 q 0,0.79531 -0.5567462,1.3521 -0.5567462,0.55671 -1.3520977,0.55671 -0.7953514,0 -1.3520982,-0.55671 Q 1,-242.11596 1,-242.91127 q 0,-0.79533 0.5567457,-1.35213 0.5567468,-0.55672 1.3520982,-0.55672 0.7953515,0 1.3520977,0.55672 0.5567462,0.5568 0.5567462,1.35213 z m 5.09025,1.22282 q 0.01988,0.27837 -0.1690118,0.47719 -0.1789541,0.2088 -0.4672691,0.2088 H 7.929501 q -0.2485473,0 -0.4275015,-0.16405 -0.1789539,-0.16404 -0.1988379,-0.41257 -0.2187218,-2.2767 -1.8342798,-3.89225 -1.615558,-1.61554 -3.892252,-1.83427 -0.2485472,-0.0199 -0.4125885,-0.19884 Q 1,-247.6834 1,-247.93189 v -1.34221 q 0,-0.2883 0.2087798,-0.46726 0.1690122,-0.16897 0.4275012,-0.16897 h 0.04971 q 1.5907029,0.12925 3.0422194,0.80027 1.4515169,0.67112 2.574951,1.80446 1.1333761,1.12345 1.804454,2.57495 0.6710779,1.4515 0.8003224,3.0422 z m 5.0902522,0.0203 q 0.0199,0.26841 -0.178957,0.46725 -0.178957,0.19884 -0.457324,0.19884 h -1.42169 q -0.258493,0 -0.442415,-0.17401 -0.183923,-0.17394 -0.193865,-0.42251 -0.119304,-2.13748 -1.004135,-4.06124 -0.88483,-1.92376 -2.3015491,-3.34047 -1.4167203,-1.4167 -3.340477,-2.30154 -1.9237565,-0.88482 -4.0612641,-1.0141 -0.2485475,-0.01 -0.4225306,-0.19381 Q 1,-252.69409 1,-252.9426 v -1.42172 q 0,-0.27837 0.1988379,-0.45731 0.1789541,-0.17893 0.4374431,-0.17893 h 0.029826 q 2.6047764,0.12921 4.9858604,1.19302 2.3810838,1.06379 4.2302776,2.9229 1.859133,1.84917 2.922917,4.23022 1.063781,2.38108 1.193028,4.98587 z"
     id="path2993"
     style="stroke-width:0.99999994" />
</svg>
