<svg xmlns:dc="http://purl.org/dc/elements/1.1/" xmlns:cc="http://creativecommons.org/ns#" xmlns:rdf="http://www.w3.org/1999/02/22-rdf-syntax-ns#" xmlns:svg="http://www.w3.org/2000/svg" xmlns="http://www.w3.org/2000/svg" height="20" width="20" id="svg6" version="1.1" viewBox="0 0 20 20">
  <path style="stroke-width:1" id="circle2" d="M 10.000072,0 A 9.9999962,9.9999962 0 0 0 0,10.00008 9.9999962,9.9999962 0 0 0 10.000072,20 9.9999962,9.9999962 0 0 0 20,10.00008 9.9999962,9.9999962 0 0 0 10.000072,0 Z m 0.205813,5.35403 c 0,0 4.123968,0 5.152551,0.27769 0.56798,0.15255 1.014514,0.60276 1.166321,1.1737 0.275474,1.03525 0.275526,3.19538 0.275526,3.19538 0,0 -5.2e-5,2.15998 -0.275526,3.19523 -0.151807,0.57094 -0.599081,1.0213 -1.166321,1.17384 -1.028583,0.2777 -5.152551,0.2777 -5.152551,0.2777 0,0 -4.1239678,0 -5.1525516,-0.2777 C 4.4853537,14.21733 4.0388195,13.76697 3.8870127,13.19603 3.6115388,12.16078 3.6114867,10.0008 3.6114867,10.0008 c 0,0 5.21e-5,-2.16013 0.275526,-3.19538 C 4.0388195,6.23448 4.4860942,5.78427 5.0533334,5.63172 6.0819172,5.35403 10.205885,5.35403 10.205885,5.35403 Z M 8.8574714,8.03914 v 3.92173 L 12.30451,10.00008 Z" />
</svg>
