<svg width="122" height="122" viewBox="0 0 122 122" fill="none" xmlns="http://www.w3.org/2000/svg">
<path d="M81.5 40.4C78.1 37 74.1 34.6 69.7 33.2C69 33 68.3 32.8 67.6 32.6C67.4 32.6 67.3 32.5 67.1 32.5H67C66.5 32.4 66 32.3 65.6 32.2C65.5 32.2 65.5 32.2 65.4 32.2C65.3 32.2 65.1 32.2 65 32.1C64.9 32.1 64.8 32.1 64.7 32.1C64.6 32.1 64.5 32.1 64.4 32.1C64.3 32.1 64.2 32.1 64.1 32.1C64 32.1 63.9 32.1 63.8 32.1C63.6 32.1 63.4 32.1 63.2 32C63.1 32 63 32 63 32C62.9 32 62.7 32 62.6 32C62.5 32 62.4 32 62.4 32C62.2 32 62.1 32 61.9 32C61.8 32 61.8 32 61.7 32C61.5 32 61.4 32 61.2 32C61.2 32 61.2 32 61.1 32C61.1 32 61.1 32 61 32C60.8 32 60.6 32 60.3 32C60.2 32 60.2 32 60.1 32C59.9 32 59.8 32 59.6 32C59.5 32 59.4 32 59.4 32C59.3 32 59.1 32 59 32C58.9 32 58.8 32 58.8 32C58.6 32 58.4 32 58.2 32.1C58.1 32.1 58 32.1 57.9 32.1C57.8 32.1 57.7 32.1 57.6 32.1C57.5 32.1 57.4 32.1 57.3 32.1C57.2 32.1 57.1 32.1 57 32.1C56.9 32.1 56.7 32.1 56.6 32.2C56.5 32.2 56.5 32.2 56.4 32.2C55.9 32.3 55.4 32.4 55 32.5H54.9C54.7 32.5 54.6 32.6 54.4 32.6C53.7 32.8 53 33 52.3 33.2C47.9 34.6 43.8 37 40.5 40.4C34.5 46 31.5 53.3 31.5 61.1C31.5 68.9 34.5 76.3 40.1 81.8C45.6 87.3 53 90.4 60.8 90.4C60.8 90.4 60.8 90.4 60.9 90.4H61C68.7 90.4 76 87.3 81.5 81.8C87 76.3 90.1 68.9 90.1 61.1C90.1 53.3 87 46 81.5 40.4ZM62.1 50.3C65.8 50.2 69.4 49.7 72.7 48.9C73.6 52.2 74.1 55.9 74.2 59.8H62.1V50.3ZM59.4 59.8H47.5C47.6 56 48.1 52.3 49 49C52.3 49.8 55.8 50.3 59.4 50.4V59.8ZM44.8 59.8H34.3C34.6 54.5 36.4 49.5 39.6 45.2C41.6 46.4 43.9 47.4 46.5 48.2C45.4 51.8 44.9 55.7 44.8 59.8ZM44.8 62.5C44.9 66.3 45.4 70 46.2 73.4C43.6 74.2 41.2 75.3 39.1 76.6C36.1 72.5 34.4 67.6 34.2 62.5H44.8V62.5ZM47.5 62.5H59.4V71.3C55.7 71.4 52.1 71.9 48.8 72.7C48 69.5 47.6 66.1 47.5 62.5ZM62.1 62.5H74.2C74.1 66.1 73.6 69.6 72.9 72.7C69.6 71.9 65.9 71.4 62.2 71.3V62.5H62.1ZM76.9 62.5H87.3C87 67.6 85.3 72.5 82.4 76.6C80.4 75.4 78.1 74.3 75.5 73.5C76.3 70.1 76.8 66.3 76.9 62.5ZM76.9 59.8C76.8 55.7 76.2 51.8 75.3 48.2C77.8 47.4 80 46.4 82 45.2C85.2 49.4 87 54.4 87.3 59.8H76.9ZM79.5 42.4C79.7 42.6 80 42.9 80.2 43.1C78.5 44.1 76.6 44.9 74.5 45.6C73.9 43.9 73.2 42.3 72.4 40.8C71.4 38.9 70.3 37.3 69 36C73 37.2 76.6 39.4 79.5 42.4ZM70.1 42C70.8 43.3 71.4 44.7 71.9 46.3C68.9 47 65.6 47.5 62.1 47.6V34.7C65.1 35.3 67.8 37.8 70.1 42ZM59.4 34.7V47.5C56 47.4 52.8 47 49.8 46.3C50.3 44.8 50.9 43.3 51.6 42C53.8 37.9 56.5 35.4 59.4 34.7ZM52.7 35.8C51.5 37.1 50.3 38.8 49.3 40.7C48.5 42.2 47.8 43.8 47.2 45.6C45 44.9 43.1 44.1 41.3 43.1C41.5 42.9 41.8 42.6 42 42.4C45 39.3 48.7 37.1 52.7 35.8ZM42 79.9C41.6 79.5 41.2 79.1 40.9 78.7C42.7 77.6 44.7 76.7 47 76C47.6 78 48.4 79.8 49.3 81.5C50.3 83.4 51.5 85.1 52.7 86.4C48.7 85.2 45 82.9 42 79.9ZM51.6 80.2C50.8 78.7 50.1 77 49.5 75.3C52.6 74.5 55.9 74.1 59.3 74V87.5C56.5 86.9 53.8 84.4 51.6 80.2ZM62.1 87.6V74C65.6 74.1 69 74.5 72.1 75.3C71.5 77.1 70.8 78.7 70.1 80.2C67.8 84.4 65.1 87 62.1 87.6ZM69.1 86.4C70.3 85.1 71.5 83.5 72.5 81.6C73.4 79.9 74.1 78.1 74.8 76.2C77 76.9 79 77.8 80.7 78.8C80.3 79.2 80 79.6 79.6 80C76.6 82.9 73 85.1 69.1 86.4Z" fill="black"/>
<path d="M60.9998 9.4C63.5955 9.4 65.6998 7.29574 65.6998 4.7C65.6998 2.10426 63.5955 0 60.9998 0C58.4041 0 56.2998 2.10426 56.2998 4.7C56.2998 7.29574 58.4041 9.4 60.9998 9.4Z" fill="black"/>
<path d="M71.1998 22.1999L65.2998 11.3999H64.3998H61.5998H61.0998H60.8998H60.3998H57.5998H56.6998L50.7998 22.1999L53.4998 23.6999L57.0998 17.3999L56.1998 26.0999H60.8998H61.0998H65.7998L64.8998 17.3999L68.4998 23.6999L71.1998 22.1999Z" fill="black"/>
<path d="M60.9998 122C63.5955 122 65.6998 119.896 65.6998 117.3C65.6998 114.704 63.5955 112.6 60.9998 112.6C58.4041 112.6 56.2998 114.704 56.2998 117.3C56.2998 119.896 58.4041 122 60.9998 122Z" fill="black"/>
<path d="M50.7998 99.7999L56.6998 110.6H57.5998H60.3998H60.8998H61.0998H61.5998H64.3998H65.2998L71.1998 99.7999L68.4998 98.2999L64.8998 104.6L65.7998 95.8999H61.0998H60.8998H56.1998L57.0998 104.6L53.4998 98.2999L50.7998 99.7999Z" fill="black"/>
<path d="M104.117 24.5223C105.953 22.6869 105.953 19.7111 104.117 17.8756C102.282 16.0402 99.3058 16.0402 97.4703 17.8756C95.6349 19.7111 95.6349 22.6869 97.4703 24.5223C99.3058 26.3578 102.282 26.3578 104.117 24.5223Z" fill="black"/>
<path d="M95.7002 40.7999L99.1002 28.8999L98.4002 28.2999L96.5002 26.3999L96.1002 25.9999L96.0002 25.8999L95.6002 25.4999L93.7002 23.5999L93.1002 22.8999L81.2002 26.2999L82.1002 29.3999L89.1002 27.3999L82.3002 32.9999L85.6002 36.2999L85.7002 36.3999L89.0002 39.6999L94.6002 32.8999L92.6002 39.8999L95.7002 40.7999Z" fill="black"/>
<path d="M24.5267 104.125C26.3622 102.29 26.3622 99.3141 24.5268 97.4786C22.6913 95.6432 19.7155 95.6432 17.88 97.4786C16.0446 99.3141 16.0446 102.29 17.88 104.125C19.7155 105.961 22.6913 105.961 24.5267 104.125Z" fill="black"/>
<path d="M26.2999 81.2L22.8999 93.1L23.5999 93.7L25.4999 95.6L25.8999 96L25.9999 96.1L26.3999 96.5L28.2999 98.4L28.8999 99.1L40.7999 95.7L39.8999 92.6L32.8999 94.6L39.6999 89L36.3999 85.7L36.2999 85.6L32.9999 82.3L27.3999 89.1L29.3999 82.1L26.2999 81.2Z" fill="black"/>
<path d="M117.3 65.7C119.896 65.7 122 63.5958 122 61C122 58.4043 119.896 56.3 117.3 56.3C114.704 56.3 112.6 58.4043 112.6 61C112.6 63.5958 114.704 65.7 117.3 65.7Z" fill="black"/>
<path d="M99.7999 71.2L110.6 65.3001V64.4001V61.6V61.1V60.9001V60.4001V57.6V56.7L99.7999 50.8L98.2999 53.5L104.6 57.1L95.8999 56.2V60.9001V61.1V65.8001L104.6 64.9001L98.2999 68.5L99.7999 71.2Z" fill="black"/>
<path d="M4.7 65.7C7.29574 65.7 9.4 63.5958 9.4 61C9.4 58.4043 7.29574 56.3 4.7 56.3C2.10426 56.3 0 58.4043 0 61C0 63.5958 2.10426 65.7 4.7 65.7Z" fill="black"/>
<path d="M22.1999 50.8L11.3999 56.7V57.6V60.4001V60.9001V61.1V61.6V64.4001V65.3001L22.1999 71.2L23.6999 68.5L17.3999 64.9001L26.0999 65.8001V61.1V60.9001V56.2L17.3999 57.1L23.6999 53.5L22.1999 50.8Z" fill="black"/>
<path d="M104.123 104.119C105.959 102.283 105.959 99.3075 104.123 97.472C102.288 95.6366 99.3121 95.6366 97.4767 97.472C95.6412 99.3075 95.6412 102.283 97.4767 104.119C99.3121 105.954 102.288 105.954 104.123 104.119Z" fill="black"/>
<path d="M81.2002 95.7L93.1002 99.1L93.7002 98.4L95.6002 96.5L96.0002 96.1L96.1002 96L96.5002 95.6L98.4002 93.7L99.1002 93.1L95.7002 81.2L92.6002 82.1L94.6002 89.1L89.0002 82.3L85.7002 85.6L85.6002 85.7L82.3002 89L89.1002 94.6L82.1002 92.6L81.2002 95.7Z" fill="black"/>
<path d="M24.5204 24.5289C26.3558 22.6935 26.3559 19.7176 24.5204 17.8822C22.685 16.0467 19.7091 16.0468 17.8737 17.8822C16.0382 19.7176 16.0382 22.6935 17.8737 24.5289C19.7091 26.3644 22.685 26.3644 24.5204 24.5289Z" fill="black"/>
<path d="M40.8004 26.3001L28.9004 22.9001L28.3004 23.6001L26.4004 25.5001L26.0004 25.9001L25.9004 26.0001L25.5004 26.4001L23.6004 28.3001L22.9004 28.9001L26.3004 40.8001L29.4004 39.9001L27.4004 32.9001L33.0004 39.7001L36.3004 36.4001L36.4004 36.3001L39.7004 33.0001L32.9004 27.4001L39.9004 29.4001L40.8004 26.3001Z" fill="black"/>
</svg>
