<svg width="121" height="84" viewBox="0 0 121 84" fill="none" xmlns="http://www.w3.org/2000/svg">
<path d="M51 10.3999C22.8 10.3999 0 26.1999 0 45.6999C0 65.1999 22.8 80.9999 51 80.9999C79.2 80.9999 102 65.1999 102 45.6999C102 26.1999 79.2 10.3999 51 10.3999ZM7.3 45.6999C7.3 41.9999 10.8 38.9999 15.2 38.9999C19.5 38.9999 23.1 41.9999 23.1 45.6999C23.1 49.3999 19.6 52.3999 15.2 52.3999C10.8 52.2999 7.3 49.3999 7.3 45.6999ZM25.3 68.7999C20.9 68.7999 17.4 65.7999 17.4 62.0999C17.4 58.3999 20.9 55.3999 25.3 55.3999C29.6 55.3999 33.2 58.3999 33.2 62.0999C33.2 65.7999 29.7 68.7999 25.3 68.7999ZM25.3 35.7999C20.9 35.7999 17.4 32.7999 17.4 29.0999C17.4 25.3999 20.9 22.3999 25.3 22.3999C29.6 22.3999 33.2 25.3999 33.2 29.0999C33.2 32.7999 29.7 35.7999 25.3 35.7999ZM44.8 75.3999C40.5 75.3999 36.9 72.3999 36.9 68.6999C36.9 64.9999 40.4 61.9999 44.8 61.9999C49.2 61.9999 52.7 64.9999 52.7 68.6999C52.7 72.3999 49.1 75.3999 44.8 75.3999ZM44.8 29.1999C40.5 29.1999 36.9 26.1999 36.9 22.4999C36.9 18.7999 40.4 15.7999 44.8 15.7999C49.2 15.7999 52.7 18.7999 52.7 22.4999C52.7 26.1999 49.1 29.1999 44.8 29.1999ZM76.6 58.1999C66.6 58.1999 58.6 52.5999 58.6 45.6999C58.6 38.7999 66.7 33.2999 76.6 33.2999C86.5 33.2999 94.6 38.8999 94.6 45.6999C94.6 52.5999 86.6 58.1999 76.6 58.1999Z" fill="black"/>
<path d="M109.7 7.8C108.4 8.9 107.7 10.5 107.7 12.3C107.7 15.6 110.4 18.3 113.7 18.3C116.1 18.3 118.1 16.9 119.1 14.9C119.2 14.8 122.7 8.5 114.2 0C114.2 0 114.2 3.9 109.7 7.8Z" fill="black"/>
<path d="M120 28.7001C120 25.3001 117.3 22.6001 113.9 22.6001C110.5 22.6001 107.8 25.3001 107.8 28.7001C107.8 29.0001 107.8 29.3001 107.9 29.5001L111.5 81.3001C111.5 82.7001 112.6 83.8001 114 83.8001C115.4 83.8001 116.5 82.7001 116.5 81.3001L120.1 29.5001C120 29.3001 120 29.0001 120 28.7001Z" fill="black"/>
</svg>
