<svg width="122" height="90" viewBox="0 0 122 90" fill="none" xmlns="http://www.w3.org/2000/svg">
<path d="M113.33 11.5229H107.93V2.89285C107.93 2.76285 107.93 2.76285 107.8 2.62285C107.67 2.48285 107.8 2.49285 107.67 2.35285C107.598 2.27945 107.553 2.18463 107.54 2.08285C107.54 1.95285 107.41 1.95285 107.41 1.81285L107.28 1.68285L107.15 1.55285L106.99 1.38285C106.917 1.31122 106.822 1.26557 106.72 1.25285C106.59 1.25285 106.59 1.12285 106.45 1.12285C106.31 1.12285 106.32 0.992854 106.18 0.992854H105.91C105.78 0.992854 105.78 0.992853 105.64 0.862853C89.9387 -1.67545 73.8618 1.90356 60.72 10.8629C47.6318 1.78071 31.505 -1.8094 15.8 0.862853V0.862853C15.67 0.862853 15.53 0.862854 15.53 0.992854H15.26C15.13 0.992854 15.13 1.12285 14.99 1.12285C14.85 1.12285 14.86 1.12285 14.72 1.25285C14.6855 1.25285 14.6525 1.26655 14.6281 1.29093C14.6037 1.31531 14.59 1.34838 14.59 1.38285C14.46 1.38285 14.46 1.51285 14.32 1.51285L14.19 1.64285L14.06 1.77285C13.9884 1.84626 13.9427 1.94108 13.93 2.04285C13.93 2.17285 13.8 2.17285 13.8 2.31285C13.8 2.45285 13.8 2.44285 13.67 2.58285C13.54 2.72285 13.67 2.71285 13.54 2.85285V11.4829H8.09C5.9599 11.4827 3.91569 12.3227 2.40108 13.8205C0.886476 15.3182 0.023697 17.3529 1.60208e-08 19.4829V81.0029C-6.69498e-05 82.061 0.209801 83.1087 0.617455 84.0853C1.02511 85.0618 1.62244 85.9477 2.37487 86.6918C3.1273 87.4358 4.01987 88.0232 5.00089 88.4199C5.9819 88.8166 7.03187 89.0148 8.09 89.0029H113.33C115.46 89.003 117.504 88.163 119.019 86.6653C120.534 85.1675 121.396 83.1328 121.42 81.0029V19.6129C121.412 17.4697 120.557 15.4166 119.042 13.9011C117.526 12.3856 115.473 11.5308 113.33 11.5229V11.5229ZM8.09 83.7029C7.37472 83.7002 6.68949 83.4149 6.18372 82.9091C5.67794 82.4033 5.39263 81.7181 5.39 81.0029V19.6129C5.39263 18.8976 5.67794 18.2124 6.18372 17.7066C6.68949 17.2008 7.37472 16.9155 8.09 16.9129H13.49V75.7328C13.5067 76.1118 13.5984 76.4837 13.7598 76.827C13.9211 77.1702 14.1489 77.4781 14.43 77.7328C14.7209 77.9885 15.0688 78.1709 15.4445 78.2648C15.8202 78.3587 16.213 78.3615 16.59 78.2729C28.427 76.3826 40.5586 78.2721 51.26 83.6729L8.09 83.7029ZM58.02 81.3829C46.3085 74.2142 32.551 71.13 18.9 72.6129V5.85285C32.6932 4.12177 46.6372 7.58282 58.02 15.5629V81.3829ZM63.42 15.5529C74.8028 7.57282 88.7468 4.11177 102.54 5.84285V72.6228C88.8868 71.1348 75.1255 74.2155 63.41 81.3829L63.42 15.5529ZM116.03 81.1129C116.027 81.8281 115.742 82.5133 115.236 83.0191C114.73 83.5249 114.045 83.8102 113.33 83.8129H70.16C80.8571 78.399 92.9931 76.5087 104.83 78.4128C105.593 78.5263 106.37 78.3321 106.99 77.8728C107.294 77.6375 107.537 77.3335 107.701 76.9859C107.864 76.6382 107.943 76.2568 107.93 75.8728V16.8729H113.33C114.045 16.8755 114.73 17.1608 115.236 17.6666C115.742 18.1724 116.027 18.8576 116.03 19.5729V81.1129Z" fill="black"/>
</svg>
