<svg width="93" height="93" viewBox="0 0 93 93" fill="none" xmlns="http://www.w3.org/2000/svg">
<path d="M92.2998 46.2C92.2998 40.6 88.2998 35.9 82.8998 34.9C81.2998 29.5 78.3998 24.6 74.7998 20.5L69.3998 25.9C71.9998 28.9 73.9998 32.3 75.2998 36.1C71.6998 38 69.2998 41.8 69.2998 46.2C69.2998 50.5 71.6998 54.3 75.2998 56.3C73.9998 60.1 71.8998 63.5 69.3998 66.5L74.7998 71.9C78.4998 67.8 81.2998 63 82.9998 57.6C88.1998 56.5 92.2998 51.8 92.2998 46.2Z" fill="black"/>
<path d="M25.7001 22.9C28.7001 20.3 32.1001 18.3 35.9001 17C37.8001 20.6 41.7001 23.1 46.0001 23.1C50.3001 23.1 54.2001 20.6 56.1001 17C59.9001 18.3 63.4001 20.4 66.3001 22.9L71.7001 17.5C67.6001 13.8 62.7001 11 57.2001 9.3C56.2001 4 51.5001 0 45.9001 0C40.3001 0 35.6001 4 34.6001 9.3C29.2001 11 24.3001 13.8 20.1001 17.5L25.7001 22.9Z" fill="black"/>
<path d="M22.9 66.5C20.3 63.5 18.3 60.1 17 56.3C20.6 54.3 23 50.6 23 46.2C23 41.8 20.6 38 17 36.1C18.3 32.3 20.3 28.8 22.9 25.9L17.5 20.5C13.8 24.6 11 29.5 9.4 34.9C4.1 35.9 0 40.6 0 46.2C0 51.8 4.1 56.5 9.4 57.5C11.1 62.9 13.9 67.7 17.6 71.8L22.9 66.5Z" fill="black"/>
<path d="M66.3 69.3999C63.3 71.9999 59.9 73.9999 56.1 75.2999C54.1 71.7999 50.4 69.3999 46.1 69.3999C41.8 69.3999 38 71.7999 36.1 75.2999C32.3 73.9999 28.9 71.9999 25.9 69.3999L20.5 74.7999C24.6 78.3999 29.4 81.1999 34.8 82.8999C35.7 88.2999 40.5 92.3999 46.1 92.3999C51.8 92.3999 56.5 88.2999 57.4 82.8999C62.8 81.2999 67.6 78.3999 71.7 74.7999L66.3 69.3999Z" fill="black"/>
</svg>
