<svg width="100" height="100" viewBox="0 0 100 100" fill="none" xmlns="http://www.w3.org/2000/svg">
<path d="M49.74 1C40.0984 1 30.6735 3.85957 22.6574 9.21696C14.6412 14.5743 8.39414 22.1889 4.7063 31.0973C1.01846 40.0057 0.0555905 49.8077 1.93948 59.2634C3.82337 68.7191 8.46937 77.4037 15.2898 84.2185C22.1102 91.0333 30.7986 95.6722 40.2558 97.5483C49.7131 99.4245 59.5144 98.4535 68.4197 94.7584C77.3251 91.0633 84.9345 84.8099 90.2853 76.7894C95.6361 68.7689 98.4879 59.3416 98.48 49.7C98.4562 36.7843 93.3122 24.4051 84.1757 15.2761C75.0391 6.14706 62.6557 1.01321 49.74 1V1ZM49.74 93.84C41.0179 93.84 32.4916 91.2536 25.2394 86.4078C17.9871 81.562 12.3347 74.6746 8.99691 66.6163C5.65909 58.5581 4.78577 49.6911 6.48738 41.1365C8.18898 32.582 12.3891 24.7241 18.5566 18.5566C24.7241 12.3891 32.582 8.18898 41.1365 6.48737C49.6911 4.78576 58.5581 5.65909 66.6163 8.99691C74.6746 12.3347 81.562 17.9871 86.4078 25.2394C91.2536 32.4916 93.84 41.0178 93.84 49.74C93.8188 61.4259 89.1645 72.6265 80.8976 80.8859C72.6307 89.1453 61.4259 93.7894 49.74 93.8V93.84Z" fill="black" stroke="black" stroke-width="1.42" stroke-miterlimit="10"/>
<path d="M49.7401 75.2299C42.969 75.2272 36.4758 72.5369 31.687 67.75C26.8982 62.9631 24.2054 56.471 24.2001 49.6999C24.2001 49.0846 23.9556 48.4945 23.5206 48.0594C23.0855 47.6243 22.4954 47.3799 21.8801 47.3799C21.2648 47.3799 20.6747 47.6243 20.2396 48.0594C19.8045 48.4945 19.5601 49.0846 19.5601 49.6999C19.568 57.699 22.7492 65.3683 28.4054 71.0245C34.0617 76.6808 41.7309 79.8619 49.7301 79.8699C50.3454 79.8699 50.9355 79.6255 51.3705 79.1904C51.8056 78.7553 52.0501 78.1652 52.0501 77.5499C52.0501 76.9346 51.8056 76.3445 51.3705 75.9094C50.9355 75.4743 50.3454 75.2299 49.7301 75.2299H49.7401Z" fill="black" stroke="black" stroke-width="1.42" stroke-miterlimit="10"/>
<path d="M49.7399 19.53C49.1246 19.53 48.5345 19.7745 48.0994 20.2095C47.6644 20.6446 47.4199 21.2347 47.4199 21.85C47.4199 22.4653 47.6644 23.0554 48.0994 23.4905C48.5345 23.9256 49.1246 24.17 49.7399 24.17C56.5093 24.1753 62.9999 26.8668 67.7865 31.6534C72.5732 36.4401 75.2646 42.9307 75.2699 49.7C75.2699 50.3153 75.5143 50.9054 75.9494 51.3405C76.3845 51.7756 76.9746 52.02 77.5899 52.02C78.2052 52.02 78.7953 51.7756 79.2304 51.3405C79.6655 50.9054 79.9099 50.3153 79.9099 49.7C79.902 41.7009 76.7208 34.0316 71.0646 28.3754C65.4083 22.7191 57.7391 19.538 49.7399 19.53V19.53Z" fill="black" stroke="black" stroke-width="1.42" stroke-miterlimit="10"/>
<path d="M49.7399 41.3799C48.0944 41.3799 46.4858 41.8678 45.1176 42.7821C43.7494 43.6963 42.683 44.9957 42.0533 46.516C41.4235 48.0362 41.2588 49.7091 41.5798 51.323C41.9008 52.937 42.6932 54.4194 43.8568 55.583C45.0204 56.7466 46.5029 57.539 48.1168 57.86C49.7307 58.181 51.4036 58.0163 52.9238 57.3866C54.4441 56.7568 55.7435 55.6904 56.6577 54.3222C57.572 52.954 58.0599 51.3454 58.0599 49.6999C58.0546 47.4949 57.1764 45.3817 55.6172 43.8226C54.0581 42.2634 51.9449 41.3852 49.7399 41.3799V41.3799ZM49.7399 52.4699C49.1921 52.4699 48.6565 52.3074 48.201 52.0031C47.7455 51.6987 47.3904 51.2661 47.1808 50.7599C46.9711 50.2538 46.9163 49.6968 47.0231 49.1595C47.13 48.6222 47.3938 48.1286 47.7812 47.7412C48.1686 47.3538 48.6622 47.09 49.1995 46.9831C49.7369 46.8762 50.2938 46.9311 50.8 47.1407C51.3061 47.3504 51.7387 47.7054 52.0431 48.161C52.3475 48.6165 52.5099 49.152 52.5099 49.6999C52.5073 50.4337 52.2146 51.1368 51.6957 51.6557C51.1768 52.1746 50.4738 52.4672 49.7399 52.4699Z" fill="black" stroke="black" stroke-width="1.42" stroke-miterlimit="10"/>
</svg>
