<svg width="87" height="105" viewBox="0 0 87 105" fill="none" xmlns="http://www.w3.org/2000/svg">
<path d="M71.9001 44.5001C71.9001 51.6001 69.2001 58.5001 64.3001 63.7001L47.6001 44.5001L64.3001 25.3001C69.1001 30.5001 71.8001 37.3001 71.9001 44.5001ZM44.0001 16.6001C50.7001 16.6001 57.2001 19.0001 62.2001 23.4001H25.7001C30.8001 19.0001 37.3001 16.6001 44.0001 16.6001ZM23.8001 25.3001L40.4001 44.5001L23.7001 63.7001C13.6001 52.9001 13.6001 36.1001 23.8001 25.3001ZM44.0001 40.4001L33.6001 28.5001H54.3001L44.0001 40.4001ZM44.0001 48.6001L54.3001 60.5001H33.6001L44.0001 48.6001ZM44.0001 72.4001C37.3001 72.4001 30.8001 70.0001 25.8001 65.6001H62.3001C57.2001 70.0001 50.7001 72.4001 44.0001 72.4001ZM76.9001 44.5001C76.9001 26.3001 62.2001 11.6001 44.0001 11.6001C25.8001 11.6001 11.1001 26.3001 11.1001 44.5001C11.1001 62.7001 25.8001 77.4001 44.0001 77.4001C62.1001 77.4001 76.9001 62.8001 76.9001 44.6001C76.9001 44.6001 76.9001 44.5001 76.9001 44.5001Z" fill="black"/>
<path d="M47.2 87V74.1C44.9 74.4 42.5 74.4 40.2 74V86.9H30.3V93.9H40.2V104.9H47.2V93.9H57.1001V86.9H47.2V87Z" fill="black"/>
<path d="M14.8 44.2C14.8 39.4 15.9 34.6 18.1 30.3C15.5 34.7 14.2 39.7001 14.2 44.8001C14.2 57.2001 21.9 68.3 33.6 72.5C22.1 67.8 14.7 56.6 14.8 44.2Z" fill="black"/>
<path d="M17.6 22L18.4 22.8L20.5 24.8L21 25.5C22.3 23.8 23.8 22.2 25.5 20.8L25.3 20.6L23 18.3L22.2 17.5L23 16.7L28.2 11.5L23.6 6.9L18.4 12.1L17.6 12.9L16.8 12.1L12.6 7.9L10.6 5.9H18.6V0H0V18.5H6V10.5L8 12.5L12.2 16.7L13 17.5L12.1 18.3L6.9 23.5L11.5 28L16.7 22.8L17.6 22Z" fill="black"/>
<path d="M67.5 61.9C71.1 56.9 73.1 50.8 73.1 44.6V44.3C73.1 50.7 71.2 56.8 67.5 61.9Z" fill="black"/>
<path d="M65.3 0.199951V6.19995H76.4L74.4 8.19995L61.8 20.7999C63.5 22.1999 65 23.7 66.3 25.4L66.5 25.2L79 12.7999L81 10.7999V21.9H87V0.199951H65.3Z" fill="black"/>
</svg>
