<svg width="145" height="118" viewBox="0 0 145 118" fill="none" xmlns="http://www.w3.org/2000/svg">
<path d="M101.6 107.65C101.4 107.45 101.4 107.45 101.3 107.45H0.5C0.3 107.45 0.200005 107.45 0.200005 107.65C4.57466e-06 107.85 0 107.95 0 107.95C0 108.15 1.5 117.45 13.3 117.45H88.5C100.3 117.45 101.8 108.15 101.8 107.95C101.8 107.75 101.8 107.65 101.6 107.65ZM58.4 114.15H43.3V110.65H58.4V114.15Z" fill="black"/>
<path d="M10.9 103.75H90.8C92 103.75 92.9001 102.85 92.9001 101.65V52.6501C92.9001 51.4501 92 50.55 90.8 50.55H10.9C9.70005 50.55 8.80005 51.4501 8.80005 52.6501V101.65C8.80005 102.85 9.70005 103.75 10.9 103.75ZM16 57.8501H85.4001V96.4501H16V57.8501V57.8501Z" fill="black"/>
<path d="M102.1 48.35C100.9 48.05 99.8001 47.85 98.6001 47.55C89.7001 44.75 84.5001 38.95 83.0001 29.75C82.3001 25.15 82.5001 20.35 83.5001 15.85C85.9001 7.45 93.1001 1.25 101.7 0.25C104.4 0.0499999 107 -0.0499999 109.7 0.0500001C114.5 0.0500001 119.5 -0.15 124.3 0.25C132.7 0.75 138.7 5.05 142.4 12.65C143.7 15.25 144.4 18.15 144.4 21.05C144.6 24.15 144.5 27.25 144.1 30.35C142.4 39.25 135.5 46.25 126.6 47.95C124.6 48.25 122.6 48.25 120.6 48.45C120.2 48.45 119.9 48.65 119.7 48.95C116 52.75 112.4 56.75 108.7 60.75C107.3 62.35 104.8 62.55 103.2 61.15C102.9 60.85 102.6 60.55 102.4 60.15C102.1 59.55 101.9 58.85 101.9 58.15V49.15C102.1 48.95 102.1 48.65 102.1 48.35ZM105.9 57.95L106.1 58.15C106.2 57.95 106.4 57.85 106.4 57.65C110.2 53.55 114.1 49.35 117.9 45.35C118.2 44.85 118.7 44.65 119.3 44.75C121.8 44.75 124.5 44.95 127 44.25C134.3 42.55 139.8 36.45 140.8 28.95C141 26.65 141 24.15 141 21.75C141 20.15 140.7 18.45 140.4 16.95C138.3 9.45 131.4 3.95 124.1 3.95H104.5C96.5001 4.05 89.6001 9.45 87.5001 17.15C86.3001 20.95 86.7001 24.95 87.0001 28.95C87.9001 37.05 94.2001 43.35 102.3 44.45C103.7 44.65 104.8 44.65 106.3 44.75V51.35C106 53.55 105.9 55.75 105.9 57.95Z" fill="black"/>
<path d="M115.5 29.0499H111.8C111.1 26.1499 112.4 23.2499 115 21.7499C115.8 21.2499 116.7 20.9499 117.5 20.3499C118.3 19.9499 118.8 19.1499 118.9 18.2499C118.9 16.4499 118 15.6499 115.9 15.2499C113 14.7499 110 15.7499 107.9 17.8499C107.7 18.0499 107.5 18.25 107.4 18.45C106.2 16.95 105.1 15.6499 103.9 14.3499C103.9 14.1499 104.1 14.15 104.1 14.05C108 9.94995 114 8.54995 119.4 10.55C122.2 11.55 124.1 14.15 124 17.15C124.3 20.15 122.7 23.05 119.9 24.35C119.5 24.55 119.1 24.75 118.7 24.85C117.4 25.95 115.7 26.8499 115.5 29.0499Z" fill="black"/>
<path d="M110.8 35.8501C110.8 34.2501 112.1 33.05 113.6 33.05C115.1 33.05 116.4 34.3501 116.4 35.8501C116.4 37.3501 115.2 38.6501 113.7 38.6501H113.6C112.1 38.6501 110.8 37.4501 110.8 35.8501Z" fill="black"/>
</svg>
