<svg width="90" height="100" viewBox="0 0 90 100" fill="none" xmlns="http://www.w3.org/2000/svg">
<path d="M13 99.4401H2C1.46957 99.4401 0.960858 99.2294 0.585785 98.8543C0.210712 98.4792 0 97.9705 0 97.4401V2.1001C0 1.56966 0.210712 1.06096 0.585785 0.685884C0.960858 0.310812 1.46957 0.100098 2 0.100098H13C13.5304 0.100098 14.0391 0.310812 14.4142 0.685884C14.7893 1.06096 15 1.56966 15 2.1001V97.4501C14.9974 97.9788 14.7855 98.4849 14.4107 98.8578C14.0359 99.2308 13.5287 99.4401 13 99.4401Z" fill="black"/>
<path d="M31.89 99.4401H21C20.4696 99.4401 19.9609 99.2294 19.5858 98.8543C19.2107 98.4793 19 97.9706 19 97.4401V16.1401C19 15.6097 19.2107 15.101 19.5858 14.7259C19.9609 14.3509 20.4696 14.1401 21 14.1401H31.86C32.3904 14.1401 32.8991 14.3509 33.2742 14.7259C33.6493 15.101 33.86 15.6097 33.86 16.1401V97.4501C33.8574 97.9737 33.6497 98.4753 33.2814 98.8474C32.913 99.2195 32.4135 99.4323 31.89 99.4401Z" fill="black"/>
<path d="M50.6002 99.44H39.7402C39.2098 99.44 38.7011 99.2293 38.326 98.8542C37.9509 98.4791 37.7402 97.9704 37.7402 97.44V2C37.7402 1.46957 37.9509 0.96086 38.326 0.585787C38.7011 0.210714 39.2098 0 39.7402 0H50.6002C51.1307 0 51.6394 0.210714 52.0145 0.585787C52.3895 0.96086 52.6002 1.46957 52.6002 2V97.49C52.5872 98.0117 52.3707 98.5077 51.9971 98.872C51.6234 99.2363 51.1221 99.4402 50.6002 99.44V99.44Z" fill="black"/>
<path d="M87.8298 96.3701L77.4198 99.4801C76.9133 99.6294 76.3682 99.5723 75.9036 99.3213C75.439 99.0702 75.0926 98.6456 74.9398 98.1401L54.7598 30.7201C54.6105 30.2135 54.6676 29.6685 54.9187 29.2039C55.1697 28.7393 55.5943 28.3928 56.0998 28.2401L66.5098 25.1301C67.0164 24.9773 67.5628 25.0315 68.0295 25.2808C68.4962 25.5301 68.8451 25.9541 68.9998 26.4601L89.1698 93.8901C89.3191 94.3966 89.262 94.9417 89.011 95.4063C88.76 95.8709 88.3354 96.2174 87.8298 96.3701V96.3701Z" fill="black"/>
</svg>
