<svg width="124" height="113" viewBox="0 0 124 113" fill="none" xmlns="http://www.w3.org/2000/svg">
<path d="M47.3923 92.2624L48.7823 90.3424C49.6122 89.2032 50.1439 87.8744 50.329 86.4771C50.5142 85.0799 50.3468 83.6585 49.8423 82.3424L48.0823 77.7224L57.6223 74.1124L44.3023 38.9824L10.7723 51.7024C10.0875 51.9631 9.46066 52.3561 8.9277 52.859C8.39474 53.3619 7.96606 53.9649 7.66612 54.6335C7.36619 55.302 7.20088 56.0232 7.17964 56.7556C7.15839 57.4881 7.28162 58.2176 7.54229 58.9024L7.8123 59.6424L3.11229 61.4324C1.92248 61.8793 0.958472 62.7798 0.431696 63.9365C-0.0950798 65.0931 -0.141614 66.4115 0.302294 67.6024L6.08229 82.8324C6.42966 83.7396 7.04359 84.5204 7.84326 85.0719C8.64293 85.6235 9.59086 85.92 10.5623 85.9224C11.1427 85.9185 11.7179 85.8136 12.2623 85.6124L16.9623 83.8224C17.5214 85.1576 18.5784 86.2227 19.9093 86.792C21.2402 87.3614 22.7405 87.3902 24.0923 86.8724L25.3423 86.3924L38.0623 111.392C38.369 112.001 38.8901 112.475 39.5253 112.722C40.1604 112.97 40.8646 112.973 41.5023 112.732L52.4623 108.542C52.8275 108.4 53.1592 108.184 53.4364 107.906C53.7135 107.629 53.9301 107.298 54.0723 106.932C54.2114 106.567 54.2708 106.177 54.2467 105.787C54.2225 105.398 54.1153 105.017 53.9323 104.672L47.3923 92.2624ZM20.2123 61.4724L18.7523 57.6524L38.7523 50.0424L38.9523 50.5924L40.1923 53.8624L23.8023 60.0924L20.2123 61.4724Z" fill="black"/>
<path d="M108.912 80.6125C108.593 80.9922 108.193 81.2961 107.741 81.5019C107.29 81.7078 106.798 81.8104 106.302 81.8025C106.074 81.7986 105.846 81.7752 105.622 81.7325L62.4319 72.8825L48.7119 36.6125L75.1619 1.34247C75.5232 0.861286 76.0071 0.485961 76.5631 0.255709C77.119 0.0254578 77.7266 -0.0512697 78.3223 0.0335431C78.9181 0.118356 79.4801 0.361596 79.9497 0.737852C80.4193 1.11411 80.7792 1.60957 80.9919 2.17247L109.482 77.2525C109.702 77.8114 109.765 78.4197 109.664 79.0117C109.564 79.6038 109.304 80.1573 108.912 80.6125Z" fill="black"/>
<path d="M117.993 34.0024L110.993 36.6524C110.658 36.7794 110.302 36.8392 109.945 36.8285C109.588 36.8178 109.236 36.7368 108.91 36.5901C108.584 36.4433 108.29 36.2337 108.045 35.9733C107.8 35.7129 107.609 35.4068 107.483 35.0724V35.0724C107.352 34.7383 107.289 34.3817 107.297 34.0231C107.304 33.6645 107.383 33.3109 107.528 32.9828C107.673 32.6547 107.881 32.3586 108.141 32.1113C108.401 31.8641 108.708 31.6708 109.043 31.5424L116.043 28.8924C116.377 28.7654 116.733 28.7056 117.09 28.7163C117.447 28.727 117.799 28.8081 118.125 28.9548C118.451 29.1015 118.745 29.3111 118.99 29.5715C119.235 29.8319 119.426 30.1381 119.553 30.4724V30.4724C119.683 30.8065 119.746 31.1631 119.738 31.5218C119.731 31.8804 119.652 32.2339 119.507 32.562C119.362 32.8901 119.154 33.1863 118.894 33.4335C118.634 33.6807 118.327 33.8741 117.993 34.0024V34.0024Z" fill="black"/>
<path d="M105.122 11.9124L99.9321 17.3324C99.4346 17.8495 98.753 18.1492 98.0356 18.1661C97.3182 18.1829 96.6233 17.9156 96.1021 17.4224V17.4224C95.8378 17.1759 95.6254 16.8793 95.477 16.5498C95.3287 16.2203 95.2475 15.8646 95.2382 15.5034C95.2289 15.1421 95.2917 14.7827 95.4228 14.446C95.554 14.1093 95.7509 13.8021 96.0021 13.5424L101.192 8.12238C101.439 7.86398 101.735 7.65691 102.063 7.51301C102.39 7.36912 102.743 7.29122 103.1 7.28379C103.458 7.27636 103.814 7.33954 104.147 7.46971C104.48 7.59987 104.784 7.79448 105.042 8.04238V8.04238C105.303 8.29003 105.513 8.58712 105.659 8.91642C105.804 9.24571 105.883 9.60066 105.891 9.96066C105.898 10.3207 105.834 10.6786 105.702 11.0136C105.57 11.3486 105.373 11.6541 105.122 11.9124Z" fill="black"/>
<path d="M123.582 56.8924C123.555 57.2491 123.457 57.5968 123.294 57.9156C123.132 58.2344 122.908 58.5181 122.636 58.7503C122.364 58.9825 122.049 59.1588 121.708 59.2689C121.368 59.3791 121.009 59.4211 120.652 59.3924L113.182 58.7924C112.825 58.7646 112.476 58.6664 112.157 58.5034C111.837 58.3404 111.553 58.1158 111.321 57.8425C111.088 57.5693 110.912 57.2527 110.803 56.9112C110.693 56.5696 110.652 56.2098 110.682 55.8524C110.741 55.1337 111.083 54.4678 111.632 54.0009C112.181 53.534 112.894 53.3043 113.612 53.3624L121.082 53.9724C121.801 54.0285 122.468 54.3676 122.937 54.9151C123.405 55.4626 123.638 56.1737 123.582 56.8924Z" fill="black"/>
</svg>
