<svg width="97" height="90" viewBox="0 0 97 90" fill="none" xmlns="http://www.w3.org/2000/svg">
<path d="M94.85 1.2756e-10H2.14C1.57244 1.2756e-10 1.02812 0.225463 0.626793 0.626791C0.225465 1.02812 0 1.57244 0 2.14V87.39C0 87.9576 0.225465 88.5019 0.626793 88.9032C1.02812 89.3045 1.57244 89.53 2.14 89.53H94.85C95.4176 89.53 95.9619 89.3045 96.3632 88.9032C96.7645 88.5019 96.99 87.9576 96.99 87.39V2.15C96.9913 1.86813 96.9369 1.58878 96.83 1.32799C96.723 1.06719 96.5656 0.830099 96.3668 0.630322C96.1679 0.430544 95.9315 0.272019 95.6713 0.163849C95.411 0.055679 95.1319 -3.07737e-06 94.85 1.2756e-10ZM80.99 53.34H92.66V61.74H80.99V53.34ZM80.99 49.06V40.49H92.66V49.06H80.99ZM80.99 36.38V27.89H92.66V36.2L80.99 36.38ZM80.99 23.7V15.21H92.66V23.61L80.99 23.7ZM80.99 66.03H92.66V74.34H80.99V66.03ZM92.66 10.94H80.99V4.29H92.66V10.94ZM76.66 4.3V42.63H20.24V4.29L76.66 4.3ZM15.96 61.65H4.28V53.34H15.95L15.96 61.65ZM15.96 48.97H4.28V40.49H15.95L15.96 48.97ZM15.96 36.29H4.28V27.89H15.95L15.96 36.29ZM15.96 23.61H4.28V15.21H15.95L15.96 23.61ZM4.28 65.94H15.95V74.34H4.28V65.94ZM15.95 4.29V10.93H4.28V4.29H15.95ZM4.28 78.62H15.95V85.26H4.28V78.62ZM20.28 85.26V46.92H76.74V85.26H20.28ZM81.03 85.26V78.62H92.7V85.26H81.03Z" fill="black"/>
</svg>
