<svg width="109" height="114" viewBox="0 0 109 114" fill="none" xmlns="http://www.w3.org/2000/svg">
<path d="M23.9 95.3C22.9 94.3 21.5 93.8 20.3 93.9C20.2 93.9 20.1 93.9 20 93.9H10.6C8 93.9 6 96.1 6 98.5V110.3C6 111.5 7 112.7 8.4 112.7H22.5C23.7 112.7 24.9 111.7 24.9 110.3V109.3L27.5 111.9C29.3 113.7 32.3 113.7 34.2 111.9C36 110.1 36 107.1 34.2 105.2L23.9 95.3ZM97.5 68.1H88.1C85.5 68.1 83.5 70.3 83.5 72.7C83.5 75.3 85.7 77.3 88.1 77.3H97.5C100.1 77.3 102.1 75.1 102.1 72.7C102.2 70.3 100.1 68.1 97.5 68.1ZM52.8 77.5H66.9C68.1 77.5 69.3 76.5 69.3 75.1V61.1C69.3 58.5 67.1 56.5 64.7 56.5H55.3C52.7 56.5 50.7 58.7 50.7 61.1V75.2C50.5 76.5 51.5 77.5 52.8 77.5ZM59.9 37.5C64.4 37.5 68.2 41.2 68.2 45.8C68.2 50.4 64.5 54.1 59.9 54.1C55.3 54.1 51.6 50.4 51.6 45.8C51.6 41.2 55.4 37.5 59.9 37.5ZM92.8 49.3C97.3 49.3 101.1 53 101.1 57.6C101.1 62.1 97.4 65.9 92.8 65.9C88.3 65.9 84.5 62.2 84.5 57.6C84.5 53 88.3 49.3 92.8 49.3ZM15.3 75.2C19.8 75.2 23.6 78.9 23.6 83.5C23.6 88 19.9 91.8 15.3 91.8C10.8 91.8 7 88.1 7 83.5C7 78.9 10.7 75.2 15.3 75.2ZM96.3 79.9H44.6C43.4 79.9 42.2 80.9 42.2 82.3V86.6L30.9 84.7C29.9 84.6 28.9 85 28.4 85.9C27.9 86.8 28.1 87.8 28.7 88.6L42.2 103V108.1C42.2 109.3 43.2 110.5 44.6 110.5H96.3C97.5 110.5 98.7 109.5 98.7 108.1V82.1C98.7 80.9 97.6 79.9 96.3 79.9ZM93.9 105.8H47V102C47 101.4 46.8 100.9 46.3 100.4L37 90.4L44.1 91.6C45.3 91.8 46.5 91 46.8 89.9C46.9 89.7 46.9 89.4 46.9 89.2V84.6H93.9V105.8ZM105.7 0H54C52.8 0 51.6 1 51.6 2.4V28.2C51.6 29.4 52.6 30.6 54 30.6H85.2L89.4 43.1C89.7 44 90.6 44.7 91.7 44.7C92.7 44.7 93.6 44 94 43.1L98.2 30.6H105.9C107.1 30.6 108.3 29.6 108.3 28.2V2.4C108.1 1 107 0 105.7 0ZM103.4 25.8H96.4C96.4 25.8 96.4 25.8 96.3 25.8C96.1 25.8 96 25.9 95.7 25.9C95.6 25.9 95.5 25.9 95.4 26C95.3 26.1 95.2 26.2 94.9 26.2C94.8 26.3 94.7 26.3 94.6 26.4C94.5 26.5 94.5 26.6 94.4 26.7C94.3 26.8 94.2 26.9 94.2 27.2C94.2 27.2 94.2 27.2 94.2 27.3L91.7 34.7L89.2 27.3C89.2 27.3 89.2 27.3 89.2 27.2C89.1 27.1 89.1 26.9 89 26.7C88.9 26.6 88.9 26.5 88.8 26.4C88.7 26.3 88.6 26.3 88.5 26.2C88.4 26.1 88.3 26 88 26C87.9 26 87.8 25.9 87.7 25.9C87.5 25.9 87.4 25.8 87.1 25.8C87.1 25.8 87.1 25.8 87 25.8H56.5V4.6H103.5V25.8H103.4ZM30.5 56.3V38.5L43.9 43.1C44.1 43.2 44.5 43.2 44.7 43.2C45.5 43.2 46.3 42.9 46.6 42.2C47.2 41.3 47.1 40 46.4 39.4L30.5 22.5V4.6C30.5 3.4 29.5 2.2 28.1 2.2H2.4C1 2.3 0 3.3 0 4.6V56.3C0 57.5 1 58.7 2.4 58.7H28.2C29.4 58.7 30.5 57.7 30.5 56.3ZM25.8 54.1H4.6V7H25.8V23.4C25.8 23.5 25.8 23.6 25.9 23.7C25.9 23.9 25.9 24 26 24.3C26.1 24.4 26.2 24.6 26.2 24.8C26.3 24.9 26.3 25 26.4 25.1L36.3 35.5L28.9 32.9C28.8 32.9 28.7 32.9 28.6 32.9C28.5 32.9 28.4 32.8 28.3 32.8C28.3 32.8 28.3 32.8 28.2 32.8C28.1 32.8 27.9 32.8 27.7 32.9C27.6 32.9 27.4 32.9 27.2 33C27.1 33.1 27 33.1 26.9 33.2C26.8 33.3 26.7 33.3 26.6 33.4C26.5 33.5 26.5 33.6 26.4 33.7C26.3 33.8 26.2 33.9 26.2 34.2C26.2 34.2 26.2 34.2 26.2 34.3C26.2 34.4 26.2 34.5 26.2 34.6C26.2 34.7 26.1 34.8 26.1 34.9V53.8C26 54.1 25.8 54.1 25.8 54.1Z" fill="black"/>
</svg>
