<svg width="83" height="104" viewBox="0 0 83 104" fill="none" xmlns="http://www.w3.org/2000/svg">
<path d="M2.1 89.2C0.999998 89.2 0.199997 90.1 0.199997 91.1V101.6C0.199997 102.7 1.1 103.5 2.1 103.5H80.9C82 103.5 82.8 102.6 82.8 101.6V91.2C82.8 90.1 81.9 89.3 80.9 89.3H79.9V61.7H80.9C82 61.7 82.8 60.8 82.8 59.8V52.7C82.8 52 82.4 51.3 81.7 51L65 44.5C64.7 44.4 64.4 44.3 64.1 44.3H62.1V30.4H63.1C64.2 30.4 65 29.4 65 28.4C65 16 55.4 7.1 43.3 6.1V1.9C43.3 0.8 42.4 0 41.4 0C40.4 0 39.5 0.9 39.5 1.9V6.1C27.4 7.1 17.8 16 17.8 28.5C17.8 29.6 18.7 30.4 19.7 30.4H20.7V44.2H18.7C18.4 44.2 18.1 44.3 17.8 44.4L1.1 50.9C0.399998 51.2 0 51.9 0 52.6V59.7C0 60.8 0.900002 61.6 1.9 61.6H2.9V89.1H2.1V89.2ZM78.9 99.7H4V93.2H78.9V99.7ZM51.4 89.2V66.5H62.3V89.2H51.4V89.2ZM47.6 66.5V89.2H35.5V66.5H47.6ZM65.6 62.7H17.3V59.6L41.4 55.3L65.5 59.6V62.7H65.6ZM31.6 66.5V89.2H20.7V66.5H31.6ZM76 89.2H66.2V66.5H66.3C67.4 66.5 69.5 65.6 69.5 64.6V61.7H76V89.2V89.2ZM58.3 44.2H49.7V30.4H58.3V44.2ZM45.8 30.4V44.2H37.2V30.4H45.8ZM41.5 9.9C51.8 9.9 60.2 16.6 61.1 26.6H21.8C22.8 16.5 31.2 9.9 41.5 9.9ZM24.7 30.4H33.3V44.2H24.7V30.4ZM4.1 53.9L19.3 48.1H63.8L79 53.9V57.9H69.6C69.6 57 68.9 56.3 68.1 56.1L42 51.4C41.7 51.3 41.5 51.3 41.2 51.4L15.1 56.1C14.2 56.3 13.6 57 13.6 57.9H4.2V53.9H4.1ZM7 61.7H13.5V64.6C13.5 65.7 14.4 66.5 15.4 66.5H16.7V89.2H7V61.7Z" fill="black"/>
</svg>
