<svg width="117" height="130" viewBox="0 0 117 130" fill="none" xmlns="http://www.w3.org/2000/svg">
<path d="M59.8001 100.6C60.5001 100.7 60.5001 101.4 60.8001 102.1C61.3001 103.8 62.0001 105.4 62.5001 107.1C63.2001 109.4 63.9001 111.7 64.6001 114C65.4001 116.5 66.1001 119.1 66.8001 121.6C67.5001 123.8 68.1001 126 68.8001 128.3C68.9001 128.6 68.9001 128.9 68.4001 128.9C67.2001 129 66.0001 129.1 64.9001 129.3C64.4001 129.4 64.3001 129.2 64.2001 128.7C64.1001 127.8 63.8001 127.1 63.1001 126.5C62.8001 127.2 62.6001 127.9 62.4001 128.6C62.2001 129.1 62.0001 129.4 61.4001 129.3C61.1001 129.2 60.7001 129.3 60.2001 129.3C60.5001 128.4 60.9001 127.6 61.1001 126.8C61.8001 124.7 62.1001 125.3 60.1001 123.5C60.1001 124 60.0001 124.3 60.0001 124.7C60.0001 126 60.0001 127.2 60.0001 128.5C60.0001 129.1 59.8001 129.3 59.2001 129.3C57.3001 129.2 55.3001 129.1 53.4001 128.9C53.2001 128.9 53.0001 128.7 52.9001 128.5C52.7001 128.1 52.6001 127.6 52.4001 127C52.2001 127.4 52.1001 127.6 52.0001 127.7C51.5001 128.2 51.1001 128.8 50.1001 128.5C48.7001 128.1 47.3001 128 45.7001 127.8C46.0001 126.7 46.3001 125.7 46.7001 124.6C47.8001 121.6 48.9001 118.5 49.9001 115.5C51.3001 111.6 52.6001 107.7 53.9001 103.8C55.0001 100.5 55.9001 97.0001 57.1001 93.7001C57.9001 91.6001 57.5001 89.5001 57.6001 87.4001C57.7001 84.5001 57.6001 81.6001 57.6001 78.6001C57.6001 77.9001 57.4001 77.5001 56.7001 77.4001C53.5001 77.0001 50.5001 75.9001 47.7001 74.2001C45.2001 72.7001 43.2001 70.6001 41.5001 68.3001C40.0001 66.4001 39.0001 64.3001 38.5001 61.9001C37.7001 57.8001 37.7001 53.7001 39.2001 49.8001C39.5001 48.9001 39.9001 48.0001 40.4001 47.2001C41.2001 45.9001 42.0001 44.7001 42.8001 43.5001C42.9001 43.4001 43.0001 43.2001 43.1001 43.1001C46.4001 39.7001 50.4001 37.5001 55.2001 36.7001C59.6001 36.0001 63.7001 36.9001 67.6001 39.0001C69.1001 39.8001 70.6001 40.7001 72.0001 41.7001C73.6001 42.9001 74.5001 44.7001 75.5001 46.4001C75.9001 47.1001 76.3001 47.9001 76.8001 48.6001C78.2001 51.0001 78.6001 53.7001 78.7001 56.4001C78.7001 59.0001 78.5001 61.6001 77.4001 64.0001C76.4001 66.2001 75.2001 68.4001 73.8001 70.4001C72.5001 72.2001 70.7001 73.6001 68.6001 74.6001C65.8001 75.9001 63.0001 76.8001 60.0001 77.3001C58.7001 77.5001 58.7001 77.5001 58.7001 78.8001C58.7001 81.8001 58.7001 84.8001 58.7001 87.9001C58.7001 88.9001 58.6001 90.0001 58.6001 91.0001C58.5001 93.8001 59.1001 96.4001 59.8001 99.0001C59.9001 99.6001 59.8001 100 59.8001 100.6ZM70.7001 68.4001C70.9001 68.3001 70.9001 68.3001 71.0001 68.3001C71.1001 68.2001 71.2001 68.1001 71.3001 68.0001C73.2001 65.9001 74.5001 63.4001 74.9001 60.6001C75.2001 58.6001 75.5001 56.6001 75.3001 54.6001C74.9001 51.5001 73.6001 48.7001 71.5001 46.4001C70.8001 45.7001 70.8001 45.7001 70.2001 46.5001C68.9001 48.0001 67.6001 49.5001 66.3001 51.1001C64.6001 53.0001 63.0001 54.9001 61.3001 56.8001C60.9001 57.2001 60.9001 57.6001 61.3001 58.0001C61.8001 58.6001 62.3001 59.2001 62.9001 59.7001C64.3001 61.2001 65.8001 62.7001 67.2001 64.2001C68.2001 65.5001 69.5001 67.0001 70.7001 68.4001ZM46.1001 45.4001C42.9001 49.5001 41.1001 54.0001 41.5001 59.2001C41.8001 62.8001 43.5001 65.9001 46.0001 68.5001C46.4001 68.1001 46.7001 67.7001 47.1001 67.3001C49.4001 64.7001 51.8001 62.0001 54.1001 59.4001C54.5001 59.0001 54.9001 58.5001 55.2001 58.1001C56.0001 57.1001 55.9001 57.1001 55.1001 56.2001C53.0001 53.7001 50.9001 51.2001 48.9001 48.7001C48.0001 47.7001 47.1001 46.6001 46.1001 45.4001ZM47.5001 43.8001C47.5001 43.9001 47.6001 44.0001 47.6001 44.1001C54.5001 44.0001 61.4001 43.9001 68.3001 43.8001C68.2001 43.6001 68.2001 43.6001 68.2001 43.5001C64.8001 40.9001 60.9001 40.0001 56.7001 40.4001C54.4001 40.6001 52.3001 41.6001 50.1001 42.4001C49.2001 42.7001 48.4001 43.3001 47.5001 43.8001ZM48.3001 70.5001C48.9001 71.7001 54.5001 74.1001 56.9001 74.2001C61.3001 74.3001 67.0001 72.5001 68.4001 70.5001C61.8001 70.5001 55.1001 70.5001 48.3001 70.5001ZM52.6001 67.1001C56.6001 67.0001 60.4001 66.9001 64.3001 66.8001C62.4001 64.5001 60.5001 62.3001 58.7001 60.1001C56.6001 62.4001 54.7001 64.7001 52.6001 67.1001ZM52.6001 47.6001C54.7001 49.9001 56.6001 52.1001 58.6001 54.3001C60.5001 52.0001 62.4001 49.8001 64.3001 47.6001C60.4001 47.6001 56.6001 47.6001 52.6001 47.6001ZM55.7001 100.6C55.6001 100.8 55.5001 101 55.4001 101.3C54.5001 104 53.6001 106.8 52.7001 109.5C52.1001 111.4 51.3001 113.3 50.7001 115.3C50.6001 115.5 50.7001 115.9 50.9001 116C51.3001 116.2 51.5001 116 51.6001 115.6C52.2001 113.4 52.8001 111.2 53.5001 109C53.9001 107.7 54.4001 106.5 54.8001 105.2C55.3001 103.9 55.8001 102.7 56.2001 101.4C56.4001 100.9 56.3001 100.6 55.7001 100.6ZM57.2001 101.1C57.1001 101.1 56.9001 101.1 56.8001 101.1C56.8001 101.6 56.8001 102.1 56.8001 102.5C56.7001 107.6 56.7001 112.7 56.6001 117.7C56.6001 117.9 56.8001 118.2 56.8001 118.4C56.9001 118.4 57.0001 118.4 57.0001 118.3C57.7001 112.7 56.9001 106.9 57.2001 101.1ZM65.0001 118.1C65.1001 118.1 65.1001 118.1 65.2001 118C63.8001 112.4 62.2001 106.9 59.7001 101.6C61.5001 107.1 63.3001 112.6 65.0001 118.1ZM53.5001 123.5C53.9001 123 54.3001 122.5 54.6001 122.1C55.5001 121 55.2001 120.1 53.9001 119.6C53.5001 119.4 53.4001 119.6 53.1001 119.9C52.3001 121.2 53.0001 122.2 53.5001 123.5ZM55.9001 119.9C56.3001 119.2 56.1001 118.8 55.6001 118.6C54.5001 118.1 53.4001 117.6 52.2001 117.1C52.0001 117 51.7001 117.1 51.5001 117.2C51.6001 117.5 51.6001 117.9 51.8001 117.9C53.2001 118.6 54.6001 119.2 55.9001 119.9ZM62.5001 123.4C62.6001 123.1 62.7001 123 62.6001 122.9C62.4001 121.9 62.2001 120.9 61.9001 120C61.9001 119.9 61.6001 119.8 61.4001 119.8C61.1001 119.8 60.9001 119.9 60.6001 120C59.8001 120.3 59.8001 120.6 60.4001 121.2C60.6001 121.4 60.7001 121.6 60.9001 121.8C61.4001 122.2 61.9001 122.7 62.5001 123.4ZM60.1001 113.6C60.1001 115.3 60.1001 116.8 60.1001 118.4C60.7001 118.1 61.0001 118 61.5001 117.8C61.0001 116.4 60.6001 115.1 60.1001 113.6ZM55.2001 117.6C55.2001 116.2 55.2001 114.9 55.2001 113.6H55.1001C54.8001 114.7 54.4001 115.9 54.1001 117.1C54.5001 117.2 54.8001 117.4 55.2001 117.6ZM60.0001 119C60.0001 119.1 60.1001 119.3 60.1001 119.4C61.5001 119 62.8001 118.7 64.2001 118.3C64.3001 118.3 64.3001 118 64.3001 118C64.2001 117.9 64.0001 117.8 63.9001 117.8C62.6001 118.2 61.3001 118.6 60.0001 119ZM54.9001 125C53.9001 125.7 53.9001 126.2 54.7001 128C54.8001 127 54.8001 126.1 54.9001 125ZM59.5001 116.7C59.5001 116.7 59.4001 116.7 59.5001 116.7C59.4001 117.8 59.3001 118.9 59.2001 120C59.3001 120 59.4001 120 59.5001 120C59.5001 118.9 59.5001 117.8 59.5001 116.7ZM51.1001 126.3C52.1001 125.8 52.2001 125.6 51.6001 124.9C51.5001 125.3 51.3001 125.7 51.1001 126.3ZM50.8001 117.5C50.9001 117.4 51.1001 117.3 51.2001 117.3C51.1001 117.1 50.9001 116.8 50.8001 116.6C50.8001 116.6 50.5001 116.8 50.3001 116.9C50.5001 117 50.6001 117.2 50.8001 117.5Z" fill="black"/>
<path d="M73.8 95.4001C73.6 96.6001 73.3 97.7001 73.1 98.9001C73.1 99.1001 73.1 99.4001 73 99.6001C72.8 99.9001 72.5 100.1 72.3 100.4C72.1 100.2 71.8 99.9001 71.8 99.7001C71.6 98.5001 71.4 97.2001 71.2 96.0001C70.8 93.9001 70.2 91.7001 69.9 89.6001C69.5 86.8001 69.3 83.9001 69 81.0001C69 80.9001 69.1 80.6001 69.2 80.6001C69.3 80.6001 69.6 80.6001 69.6 80.8001C70.1 81.7001 70.7 82.6001 71.1 83.6001C71.9 85.6001 72.5 87.6001 73.2 89.6001C73.4 90.1001 73.5 90.6001 73.6 91.2001C74.4 90.0001 75.1 88.9001 75.8 87.8001C75.9 87.8001 76 87.8001 76.1 87.8001C76.3 88.1001 76.5 88.5001 76.6 88.8001C77.4 92.2001 78.3 95.5001 79.1 98.9001C79.8 102.3 80.4 105.7 80.9 109.1C81.1 110.3 81.2 111.5 81.3 112.7C81.3 112.9 81.2 113.2 81 113.2C80.9 113.3 80.5 113.1 80.4 113C80.2 112.6 80 112.3 79.8 111.9C78.3 107.6 76.7 103.4 75.2 99.1001C74.8 97.9001 74.4 96.7001 74 95.5001C74 95.4001 73.9 95.4001 73.8 95.4001Z" fill="black"/>
<path d="M99.3999 70.3C100.4 71.7 101.4 72.9001 102.2 74.2001C102.3 74.4001 102.3 74.7 102.3 75C102 75 101.6 75.2001 101.4 75.1001C99.0999 74.0001 96.7 73 94.5 71.8C90.9 69.8 87.3 67.6 83.7 65.5C83.5 65.4 83.3 65.1 83.2 64.9C83.4 64.8 83.6999 64.5 83.8999 64.5C84.2999 64.5 84.8 64.5001 85.2 64.7001C88.3 65.9001 91.2999 67.1 94.3999 68.4C94.7999 68.6 95.1999 68.8 95.7999 68.9C95.1999 67.7 94.6999 66.6 94.0999 65.4C93.8999 64.9 93.8 64.3 93.7 63.8C94.2 63.9 94.6999 64 95.0999 64.3C99.1999 66.5 103.3 68.7 107.4 71C109.7 72.3 111.9 73.7001 114.2 75.1001C114.9 75.5001 115.7 75.9 116.4 76.3C116.6 76.4 116.7 76.8 116.9 77C116.6 77 116.3 77.1001 116.1 77.1001C113.6 76.2001 111 75.3 108.5 74.3C105.5 73 102.5 71.7 99.3999 70.3Z" fill="black"/>
<path d="M87.8 22.8C89.2 22.5 90.5 22.3 91.8 22C92.1 21.9 92.4 21.8 92.8 21.8C93 21.8 93.3 21.9 93.4 22C93.5 22.1 93.3 22.5 93.2 22.6C92.4 23.3 91.5 24.1 90.7 24.8C87.8 27.2 84.9 29.6 81.9 32C80 33.5 77.9 34.8001 75.8 36.2001C75.6 36.3001 75.3 36.3 75 36.4C75.1 36.1 75.1 35.8 75.3 35.6C77 33.7 78.8 31.9 80.5 30.1C81.4 29.1 82.4 28.2 83.3 27.1C82.7 27.3 82.1 27.6 81.5 27.8C81 27.9 80.1 28.2 79.9 28C79.4 27.4 80.1 27 80.5 26.6C83.9 22.2 87.2 17.9 90.6 13.6C91.8 12.1 93.1 10.8 94.4 9.50005C94.6 9.30005 95 9.40005 95.3 9.30005C95.3 9.60005 95.4 9.90005 95.3 10.2C93 14.2 90.7 18.2 88.3 22.1C88.2 22.2 88.1 22.4 87.8 22.8Z" fill="black"/>
<path d="M89.0999 86.2C89.5999 87.6 89.9999 88.7 90.3999 89.8C90.4999 90 90.5999 90.2 90.4999 90.5C90.4999 90.7 90.3999 91 90.1999 91.1C90.0999 91.2 89.7999 91.1 89.5999 90.9C88.8999 90.2 88.2999 89.5 87.6999 88.8C85.8999 86.5 84.1999 84.3 82.3999 82C80.9999 80.1 79.4999 78.2 78.0999 76.3C77.8999 76.1 77.7999 75.9 77.6999 75.6C77.5999 75.3 77.4999 74.9 77.3999 74.5C77.7999 74.6 78.2999 74.6 78.6999 74.7C78.9999 74.8 79.2999 75 79.4999 75.3C81.6999 77.2 83.8999 79.2 86.1999 81.1C86.2999 81.2 86.3999 81.3 86.6999 81.6C86.4999 80.5 86.2999 79.6 86.1999 78.6C86.1999 78.2 86.3999 77.8 86.4999 77.5C86.8999 77.7 87.3999 77.8 87.5999 78.1C90.7999 82.1 94.0999 86.1 97.2999 90.2C98.6999 92 100.1 93.9 101.5 95.8C101.6 96 101.6 96.3 101.7 96.6C101.4 96.5 101.1 96.5 100.9 96.4C99.4999 95.2 98.0999 94 96.7999 92.9C95.3999 91.7 93.9999 90.5 92.5999 89.3C91.5999 88.4 90.4999 87.6 89.4999 86.8C89.4999 86.6 89.3999 86.5 89.0999 86.2Z" fill="black"/>
<path d="M53.1001 17.4C53.6001 16.4 54.1001 15.3 54.6001 14.3C54.8001 14 55.1001 13.7 55.4001 13.4C55.5001 13.8 55.8001 14.2 55.8001 14.5C55.7001 17 55.5001 19.5 55.3001 22C55.1001 24.4 54.9001 26.9 54.7001 29.3C54.7001 29.9 54.6001 30.5 54.5001 31C54.4001 31.2 54.2001 31.4 54.0001 31.6C53.8001 31.4 53.6001 31.2 53.5001 31C53.2001 29.6 52.9001 28.2 52.6001 26.8C52.3001 25.5 52.0001 24.1 51.7001 22.6C51.5001 23.2 51.4001 23.7 51.1001 24.2C50.9001 24.7 50.7001 25.5 50.0001 25.4C49.3001 25.3 49.3001 24.5 49.3001 24C49.2001 23 49.1001 22 49.0001 21C48.6001 17.9 48.0001 14.8 47.6001 11.7C47.2001 8.5 46.9001 5.4 46.5001 2.2C46.4001 1.7 46.3001 1.2 46.4001 0.7C46.4001 0.5 46.7001 0.2 46.8001 0C47.0001 0.2 47.3001 0.3 47.4001 0.5C49.1001 5.6 50.7001 10.8 52.3001 16C52.5001 16.5 52.6001 16.9 52.8001 17.4C52.9001 17.3 53.0001 17.3 53.1001 17.4Z" fill="black"/>
<path d="M66.8999 20.8001C66.3999 21.2001 65.7999 21.7001 65.2999 22.1001C65.0999 22.3001 64.8 22.3001 64.5 22.4001C64.5 22.1001 64.4999 21.8001 64.5999 21.6001C66.0999 18.9001 67.6 16.2001 69 13.4001C70.9 9.8001 72.6999 6.1001 74.5999 2.4001C74.6999 2.2001 74.8 2.0001 75 1.9001C75.3 1.7001 75.7 1.7001 76 1.6001C76 1.9001 76.1999 2.3001 76.0999 2.6001C74.3999 7.8001 72.7 13.0001 71 18.2001C70.9 18.4001 70.8999 18.5001 70.8999 18.7001C72.1999 18.4001 72.9999 17.1001 74.5999 17.2001C74.3999 17.7001 74.3 18.1001 74 18.4001C72.5 20.5001 70.8999 22.6001 69.2999 24.7001C67.6999 26.7001 66.1 28.7001 64.5 30.6001C64.3 30.8001 64.2 31.0001 64 31.2001C63.8 31.3001 63.4999 31.4001 63.2999 31.4001C63.2999 31.2001 63.2 30.9001 63.2 30.7001C63.5 29.8001 63.9 28.8001 64.2 27.9001C65.1 25.6001 66.0999 23.2001 67.0999 20.9001C67.0999 20.9001 66.9999 20.9001 66.8999 20.8001Z" fill="black"/>
<path d="M98.1001 35C99.0001 35.2 99.7001 35.4 100.5 35.6C100.8 35.7 101 35.7 101.3 35.9C101.8 36.2 101.7 36.5 101.3 36.8C101.1 36.9 100.8 37 100.6 37C96.2001 38 91.7 38.9 87.3 39.9C85.5 40.3 83.7001 40.7 81.9001 41.1C81.6001 41.2 81.2 41.1 80.8 41C81.1 40.8 81.3001 40.4 81.6001 40.3C85.1001 38.6 88.6001 37 92.4001 35.2C91.8001 35.2 91.4001 35.2 91.1001 35.1C90.8001 35 90.6001 34.8 90.4001 34.7C90.6001 34.5 90.7001 34.1 91.0001 34C92.4001 33.4 93.8001 32.9 95.2001 32.3C100 30.2 105.1 29 110.1 27.4C110.3 27.3 110.5 27.2 110.7 27.3C111 27.4 111.3 27.6 111.5 27.9C111.6 28 111.3 28.5 111.1 28.6C109.6 29.4 108.1 30.3 106.5 31C103.7 32.3 101 33.6 98.1001 35Z" fill="black"/>
<path d="M40.6999 94.8C39.8999 95.4 39.1999 95.8999 38.4999 96.3999C37.8999 96.7999 37.2999 97.0999 36.6999 97.3999C36.5999 97.4999 36.2999 97.4 36.0999 97.3C35.9999 97.3 36.0999 97 36.1999 96.8C37.7999 94.1 39.3999 91.3 41.0999 88.6C42.5999 86.4 44.1999 84.3 45.7999 82.1C46.0999 81.7 46.3999 81.6 46.7999 81.8C47.1999 82 47.3999 82.3 47.1999 82.8C47.0999 83.2 46.9999 83.4999 46.7999 83.8999C45.5999 86.2999 44.4999 88.7 43.2999 91.1C44.3999 90.7 45.5999 90.1 46.7999 89.7C47.1999 89.6 47.6999 89.6 48.0999 89.6C47.9999 90.1 47.9999 90.5999 47.6999 90.9999C47.1999 91.7999 46.4999 92.4 45.9999 93.2C43.9999 95.9 41.9999 98.5999 40.0999 101.4C39.5999 102.1 39.1999 102.9 38.7999 103.7C38.0999 104.9 37.3999 106.1 36.6999 107.3C36.1999 108 35.6999 108.7 35.1999 109.3C35.0999 109.5 34.7999 109.5 34.5999 109.6C34.4999 109.4 34.3999 109.1 34.4999 108.9C34.8999 108 35.3999 107 35.7999 106.1C36.5999 104.3 37.2999 102.4 38.1999 100.6C38.7999 98.7 39.7999 96.8 40.6999 94.8Z" fill="black"/>
<path d="M26.4999 84.9999C25.0999 84.9999 23.7999 84.9999 22.5999 84.9999C22.2999 84.9999 21.9999 85.0999 21.7999 84.9999C21.4999 84.8999 21.2999 84.6999 20.9999 84.4999C21.1999 84.2999 21.2999 83.9999 21.4999 83.8999C24.9999 82.1999 28.4999 80.4 31.9999 78.7C33.6999 77.9 35.4999 77.0999 37.2999 76.2999C37.3999 76.1999 37.4999 76.2 37.6999 76.2C37.9999 76.2 38.1999 76.2999 38.4999 76.2999C38.3999 76.4999 38.3999 76.7999 38.1999 76.9999C37.5999 77.4999 36.8999 77.9999 36.1999 78.3999C33.9999 79.8999 31.8999 81.2999 29.6999 82.7999C29.5999 82.7999 29.5999 82.8999 29.5999 82.9999C30.1999 83.0999 30.8999 83.1999 31.4999 83.2999C32.3999 83.4999 33.1999 83.6999 34.0999 83.8999C34.2999 83.9999 34.4999 84.0999 34.5999 84.2999C34.4999 84.4999 34.3999 84.7999 34.1999 84.8999C32.8999 85.5999 31.4999 86.2999 30.1999 86.9999C27.1999 88.3999 24.0999 89.7999 21.0999 91.2999C18.0999 92.6999 15.1999 94.3 12.1999 95.7C11.7999 95.9 11.2999 95.7999 10.8999 95.7999C11.1999 95.4999 11.3999 95.0999 11.6999 94.7999C13.3999 93.4999 15.0999 92.3 16.8999 91.1C19.1999 89.6 21.4999 88.2 23.8999 86.7C24.4999 86.1 25.4999 85.5999 26.4999 84.9999Z" fill="black"/>
<path d="M19.9999 69.9C18.2999 69.5 16.7999 69.2 15.2999 68.9C15.1999 68.9 15.0999 68.9 14.9999 68.8C14.6999 68.6 14.3999 68.3 14.0999 68.1C14.3999 68 14.6999 67.7 15.0999 67.7C17.6999 67.3 20.3999 67 22.9999 66.6C25.5999 66.2 28.2999 65.8 30.8999 65.5C31.4999 65.4 31.9999 65.5 32.5999 65.5C32.5999 65.6 32.5999 65.8 32.6999 65.9C29.6999 67.6 26.5999 68.9 23.0999 69.5C23.9999 70.1 24.7999 70.6 25.5999 71.1C25.9999 71.4 26.2999 71.6 26.6999 71.9C27.0999 72.3 26.8999 72.5 26.4999 72.6C24.5999 72.9 22.7999 73.2 20.8999 73.6C19.4999 73.9 18.1999 74.3 16.8999 74.5C14.8999 74.8 12.9999 75 10.9999 75.2C8.8999 75.4 6.79991 75.7 4.69991 75.9C4.29991 75.9 3.7999 75.8 3.3999 75.8C3.7999 75.5 4.0999 75.2 4.4999 75C7.1999 74.1 9.7999 73.4 12.4999 72.5C14.2999 71.9 15.9999 71.3 17.7999 70.7C18.3999 70.4 19.0999 70.2 19.9999 69.9Z" fill="black"/>
<path d="M41.2999 37.4C40.8999 37.2 40.5999 37.2 40.3999 37C39.6999 36.2 39 35.4 38.5 34.5C37.4 32.8 36.3 31 35.2 29.2C35.2 29.1 35.0999 29.1 34.8999 28.9C34.5999 29.6 34.5 30.3 34.2 30.9C33.9 31.6 33.6 32.4 33.2 33.1C33.1 33.3 32.6999 33.6 32.5999 33.6C32.3999 33.5 32.1 33.2 32 33C31.8 32.3 31.7 31.6 31.5 30.9C30.6 27.8 29.5 24.8 28.7 21.7C27.8 18.2 27.1 14.7 26.2 11.2C26.1 10.6 25.9 10 25.7 9.5C25.7 9.3 25.7 9.2 25.7 9C25.9 9 26.1 9 26.2 9.1C26.4 9.3 26.6 9.5 26.7 9.8C28.3 13.6 29.7999 17.5 31.3999 21.3C32.0999 23 32.7 24.6 33.5 26.3C33.6 25.6 33.7 25 33.7 24.3C33.8 23.5 33.8 22.7 34 21.9C34.1 21.6 34.3999 21.3 34.5999 21C34.7999 21.2 35.1999 21.4 35.2999 21.7C35.5999 22.3 35.8 23 36 23.7C37 26.2 37.8999 28.8 38.8999 31.3C39.5999 33.2 40.3999 35 41.0999 36.8C41.2999 37 41.2999 37.1 41.2999 37.4Z" fill="black"/>
<path d="M33.4999 46.8999C32.9999 46.6999 32.4999 46.5999 32.0999 46.2999C31.2999 45.7999 30.6999 45.1 29.8999 44.5C27.3999 42.8 24.8999 41.0999 22.3999 39.3999C22.4999 39.6999 22.5999 40.0999 22.6999 40.5999C22.7999 41.6999 22.9999 42.8 23.0999 44C23.0999 44.2 22.8999 44.3999 22.7999 44.5999C22.5999 44.4999 22.3999 44.3999 22.1999 44.2999C19.2999 41.2999 16.2999 38.3 13.3999 35.2C11.0999 32.8 8.89991 30.4999 6.59991 28.0999C6.39991 27.7999 6.09991 27.5999 5.89991 27.2999C5.79991 27.1999 5.89991 26.9 5.89991 26.7C6.09991 26.7 6.39991 26.6999 6.49991 26.7999C7.99991 27.9999 9.49991 29.1999 10.9999 30.3999C13.0999 32.1999 15.2999 33.9999 17.3999 35.8999C17.9999 36.4999 18.6999 36.9999 19.3999 37.5999C19.2999 37.2999 19.0999 36.9999 18.8999 36.5999C18.1999 35.3999 17.8999 34.1 17.6999 32.7C17.6999 32.4 17.8999 32 17.8999 31.7C18.1999 31.8 18.5999 31.8999 18.7999 32.0999C20.1999 33.4999 21.4999 34.9 22.8999 36.2C24.8999 38.1 26.8999 39.9999 28.8999 41.8999C30.2999 43.1999 31.5999 44.4999 32.9999 45.7999C33.1999 45.9999 33.3999 46.3 33.5999 46.5C33.6999 46.7 33.5999 46.7999 33.4999 46.8999Z" fill="black"/>
<path d="M102.8 51.5C103.8 52.3 104.8 52.9999 105.7 53.7999C105.9 53.9999 106 54.2999 106.1 54.4999C105.8 54.5999 105.5 54.8999 105.3 54.8999C104.3 54.8999 103.3 54.8999 102.4 54.7999C98.2001 54.6999 94.0001 54.5999 89.8001 54.4999C88.3001 54.4999 86.8001 54.3999 85.3001 54.2999C85.0001 54.2999 84.8001 54.0999 84.6001 53.8999C84.8001 53.6999 85.0001 53.4999 85.2001 53.3999C87.1001 52.5999 89.1001 52.8 91.0001 52.7C93.5001 52.5 96.0001 52.4 98.5001 52.2C98.5001 52.1 98.5001 51.9999 98.5001 51.8999C97.6001 51.4999 96.7001 51.0999 95.8001 50.7999C95.4001 50.5999 94.9001 50.4999 94.5001 50.2999C94.2001 50.1999 94.0001 49.9 93.8001 49.7C94.1001 49.5 94.3001 49.2 94.6001 49.2C95.7001 49 96.8001 48.6999 97.9001 48.5999C102.7 48.2999 107.6 47.9 112.4 47.7C113.1 47.7 113.8 47.9 114.5 48C114.7 48.1 114.9 48.3999 115 48.5999C115 48.6999 114.7 48.9999 114.5 49.0999C113.2 49.3999 111.9 49.8 110.5 50C107.9 50.7 105.4 51.1 102.8 51.5Z" fill="black"/>
<path d="M18.4 57.1C17.3 56.1 16.3 55.1 15.2 54.1C15 53.9 14.8 53.8 14.6 53.6C14.5 53.3 14.3 53 14.4 52.7C14.4 52.6 14.9 52.3999 15.1 52.3999C15.9 52.4999 16.7 52.5999 17.4 52.8999C19.9 54.0999 22.6 54.5999 25.3 55.2999C27.4 55.7999 29.4 56.3999 31.5 56.9999C31.6 56.9999 31.8 57.1999 31.8 57.2999C31.8 57.3999 31.6 57.6 31.5 57.6C31.2 57.7 31 57.8 30.7 57.7C27.8 57.5 24.8 57.3 21.8 57.1C21.9 57.3 22.1 57.5 22.2 57.7C22.9 58.8 23.6 59.7999 24.3 60.8999C24.4 61.0999 24.4 61.5 24.3 61.7C24.2 61.8 23.8 61.8 23.5 61.7C21.7 61 20 60.3 18.2 59.6C17.2 59.2 16.2 58.7999 15.2 58.4999C13.1 57.7999 11 57.0999 8.9 56.3999C8 56.0999 7.2 55.6 6.3 55.1C5 54.5 3.6 53.8999 2.3 53.2999C1.7 52.9999 1.1 52.7999 0.5 52.3999C0.3 52.2999 0.2 51.9999 0 51.7999C0.2 51.7999 0.500005 51.7 0.700005 51.7C1.9 52 3.1 52.3999 4.2 52.7999C6.8 53.4999 9.3 54.1999 11.9 54.9999C13.9 55.5999 15.9 56.1999 17.9 56.8999C18.1 56.9999 18.2 56.9999 18.4 56.9999C18.3 57.1999 18.4 57.2 18.4 57.1Z" fill="black"/>
</svg>
