<svg width="108" height="99" viewBox="0 0 108 99" fill="none" xmlns="http://www.w3.org/2000/svg">
<path d="M30.1 78.6001C33.9 85.7001 38.5 90.1001 43.5 91.2001V67.8C37.6 68 31.8 68.7001 26.5 70.0001C27.5 73.1001 28.7 76.0001 30.1 78.6001Z" fill="black"/>
<path d="M25.3 65.6C31 64.2 37.2 63.4 43.5 63.2V48H23C23.1 54.1 23.9 60.1 25.3 65.6Z" fill="black"/>
<path d="M30.0999 12.6001C28.8999 14.9001 27.7999 17.4001 26.8999 20.0001C32.0999 21.2001 37.6999 22.0001 43.4999 22.1001V0.100098C38.4999 1.2001 33.8999 5.5001 30.0999 12.6001Z" fill="black"/>
<path d="M23 43.3001H43.5V26.9001C37.2 26.7001 31.2 25.9001 25.6 24.6001C24 30.3001 23.2 36.7001 23 43.3001Z" fill="black"/>
<path d="M25.9998 10.3999C27.7998 6.9999 29.7998 4.1999 31.8998 1.8999C24.9998 4.0999 18.6998 7.8999 13.4998 13.1999C13.0998 13.5999 12.6998 13.9999 12.2998 14.4999C15.2998 16.1999 18.6998 17.6999 22.3998 18.7999C23.3998 15.7999 24.5998 12.9999 25.9998 10.3999Z" fill="black"/>
<path d="M22 71.3C18.1 72.5 14.6 74.1001 11.5 75.9001C12.1 76.6001 12.8 77.3001 13.4 77.9001C18.6 83.1001 25 87.0001 31.8 89.2001C29.7 86.9001 27.7 84.1001 25.9 80.7001C24.4 77.9001 23.1 74.7 22 71.3Z" fill="black"/>
<path d="M21 23.3001C16.6 21.9001 12.6 20.2001 9.1 18.1001C3.6 25.4001 0.5 34.0001 0 43.2001H18.2C18.4 36.2001 19.4 29.5001 21 23.3001Z" fill="black"/>
<path d="M18.3001 48H0.100098C0.600098 56.8 3.5001 65.2 8.6001 72.3C12.2001 70.1 16.3001 68.3 20.8001 66.9C19.3001 61 18.4001 54.6 18.3001 48Z" fill="black"/>
<path d="M66.4002 24.5C60.7002 25.9 54.5002 26.7 48.2002 26.9V43.2H69.0002C68.9002 36.6 68.0002 30.3 66.4002 24.5Z" fill="black"/>
<path d="M69.5998 18.6999C73.1998 17.4999 76.4998 16.0999 79.4998 14.3999C79.0998 13.9999 78.6998 13.4999 78.2998 13.0999C73.1998 7.9999 66.9998 4.1999 60.2998 1.8999C62.3998 4.1999 64.3998 6.9999 66.0998 10.2999C67.3998 12.9999 68.5998 15.7999 69.5998 18.6999Z" fill="black"/>
<path d="M65.4002 70.1001C60.1002 68.8001 54.2002 68 48.2002 67.8V91.2001C53.3002 90.2001 58.1002 85.8001 61.9002 78.6001C63.2002 76.0001 64.4002 73.2001 65.4002 70.1001Z" fill="black"/>
<path d="M61.9002 12.6C58.1002 5.4 53.3002 0.9 48.2002 0V22.2C54.1002 22 59.8002 21.3 65.1002 20C64.2002 17.4 63.1002 14.9 61.9002 12.6Z" fill="black"/>
<path d="M69.0002 48H48.2002V63.1C54.7002 63.3 60.9002 64.1 66.7002 65.6C68.1002 60.1 68.9002 54.2 69.0002 48Z" fill="black"/>
<path d="M100.2 69.0999V21.8999C100.2 17.4999 96.5998 13.8999 92.1998 13.8999C88.1998 13.8999 84.8998 16.8999 84.2998 20.6999C83.6998 19.8999 83.1998 18.9999 82.5998 18.1999C79.1998 20.1999 75.2998 21.8999 70.9998 23.2999C72.6998 29.4999 73.5998 36.2999 73.7998 43.2999H84.1998V47.9999H73.7998C73.5998 54.5999 72.7998 60.9999 71.2998 66.8999C74.9998 68.0999 78.3998 69.4999 81.3998 71.1999C80.2998 72.2999 79.2998 73.5999 78.4998 74.9999C75.8998 73.5999 73.0998 72.3999 69.9998 71.3999C68.8998 74.7999 67.5998 77.8999 66.0998 80.7999C64.3998 84.0999 62.3998 86.8999 60.2998 89.1999C66.3998 87.1999 72.0998 83.8999 76.8998 79.3999C76.6998 80.3999 76.5998 81.4999 76.5998 82.4999C76.5998 91.1999 83.5998 98.1999 92.2998 98.1999C101 98.1999 108 91.1999 108 82.4999C107.9 76.7999 104.8 71.7999 100.2 69.0999ZM92.1998 93.1999C86.1998 93.1999 81.3998 88.3999 81.3998 82.3999C81.3998 77.5999 84.4998 73.5999 88.7998 72.1999V61.5999V47.8999V43.1999V29.4999V27.8999H95.5998V72.0999C99.8998 73.4999 103 77.5999 103 82.2999C103 88.2999 98.1998 93.1999 92.1998 93.1999Z" fill="black"/>
</svg>
