<svg width="111" height="111" viewBox="0 0 111 111" fill="none" xmlns="http://www.w3.org/2000/svg">
<path d="M55.5 0C24.9 0 0 24.8 0 55.5C0 86.2 24.9 111 55.5 111C86.1 111 111 86.1 111 55.5C111 24.9 86.1 0 55.5 0ZM105 55.5C105 82.8 82.8 105 55.5 105C28.2 105 6 82.7 6 55.5C6 28.3 28.2 6 55.5 6C82.8 6 105 28.2 105 55.5Z" fill="black"/>
<path d="M54.9999 37.9001C54.9999 27.0001 46.0999 18.1001 35.1999 18.1001C24.2999 18.1001 15.3999 27.0001 15.3999 37.9001C15.3999 48.8001 24.2999 57.7001 35.1999 57.7001C46.0999 57.7001 54.9999 48.8001 54.9999 37.9001ZM51.1999 37.9001C51.1999 46.7001 43.9999 53.9001 35.1999 53.9001C26.3999 53.9001 19.1999 46.7001 19.1999 37.9001C19.1999 29.1001 26.3999 21.9001 35.1999 21.9001C43.9999 21.9001 51.1999 29.1001 51.1999 37.9001Z" fill="black"/>
<path d="M75.8 40.9999C82.6 40.9999 88.1 35.4999 88.1 28.6999C88.1 21.8999 82.6 16.3999 75.8 16.3999C69 16.3999 63.5 21.8999 63.5 28.6999C63.5 35.4999 69 40.9999 75.8 40.9999ZM75.8 19.8999C80.7 19.8999 84.6 23.7999 84.6 28.6999C84.6 33.5999 80.7 37.4999 75.8 37.4999C70.9 37.4999 67 33.5999 67 28.6999C67 23.7999 70.9 19.8999 75.8 19.8999Z" fill="black"/>
<path d="M75.4 60.9999C73.5 60.3999 71.4 60.4999 69.6 61.4999C65.9 63.3999 64.4 67.9999 66.3 71.6999C67.6 74.2999 70.3 75.7999 73 75.7999C74.2 75.7999 75.3 75.4999 76.4 74.9999C78.2 74.0999 79.5 72.4999 80.2 70.5999C80.8 68.6999 80.7 66.5999 79.7 64.7999C78.9 62.9999 77.4 61.5999 75.4 60.9999ZM77.8 69.6999C77.4 70.9999 76.5 71.9999 75.3 72.5999C72.9 73.7999 69.9 72.8999 68.6 70.3999C67.4 67.9999 68.3 64.9999 70.8 63.6999C71.5 63.2999 72.3 63.1999 73 63.1999C73.5 63.1999 74 63.2999 74.5 63.3999C75.8 63.7999 76.8 64.6999 77.4 65.8999C78.1 67.0999 78.2 68.4999 77.8 69.6999Z" fill="black"/>
<path d="M62.1 68.4999C60.2 64.7999 55.6 63.2999 51.9 65.1999C50.1 66.0999 48.8 67.6999 48.1 69.5999C47.5 71.4999 47.6 73.5999 48.6 75.3999C49.5 77.1999 51.1 78.4999 53 79.1999C53.8 79.3999 54.6 79.5999 55.3 79.5999C56.5 79.5999 57.6 79.2999 58.7 78.7999C62.5 76.7999 64 72.1999 62.1 68.4999ZM57.6 76.3999C56.4 76.9999 55.1 77.0999 53.8 76.6999C52.5 76.2999 51.5 75.3999 50.9 74.1999C50.3 72.9999 50.2 71.6999 50.6 70.3999C51 69.0999 51.9 68.0999 53.1 67.4999C53.8 67.0999 54.6 66.9999 55.3 66.9999C57.1 66.9999 58.9 67.9999 59.7 69.6999C61 72.0999 60.1 75.0999 57.6 76.3999Z" fill="black"/>
<path d="M64.1 79.5999C62.3 80.4999 61 82.0999 60.3 83.9999C59.7 85.8999 59.8 87.9999 60.8 89.7999C61.7 91.5999 63.3 92.8999 65.2 93.5999C66 93.7999 66.8 93.9999 67.5 93.9999C68.7 93.9999 69.8 93.6999 70.9 93.1999C72.7 92.2999 74 90.6999 74.7 88.7999C75.3 86.8999 75.2 84.7999 74.2 82.9999C72.3 79.1999 67.8 77.6999 64.1 79.5999ZM72.2 87.8999C71.8 89.1999 70.9 90.1999 69.7 90.7999C68.5 91.3999 67.2 91.4999 65.9 91.0999C64.6 90.6999 63.6 89.7999 63 88.5999C62.4 87.3999 62.3 86.0999 62.7 84.7999C63.1 83.4999 64 82.4999 65.2 81.8999C65.9 81.4999 66.7 81.3999 67.4 81.3999C69.2 81.3999 71 82.3999 71.8 84.0999C72.5 85.2999 72.6 86.5999 72.2 87.8999Z" fill="black"/>
<path d="M65.7 50.7C51.7 50.7 40.3 62.1 40.3 76.1C40.3 90.1 51.7 101.5 65.7 101.5C79.7 101.5 91.1001 90.1 91.1001 76.1C91.1001 62.1 79.7 50.7 65.7 50.7ZM65.7 98C53.6 98 43.8 88.2 43.8 76.1C43.8 64 53.6 54.2 65.7 54.2C77.8 54.2 87.6001 64 87.6001 76.1C87.6001 88.1 77.8 98 65.7 98Z" fill="black"/>
</svg>
