<svg width="74" height="99" viewBox="0 0 74 99" fill="none" xmlns="http://www.w3.org/2000/svg">
<path d="M66.8 48.2001C65.4 49.2001 63.6 49.8001 61.9 49.8001C61.1 49.8001 60.3 49.7001 59.5 49.5001C58.1 49.1001 56.9 48.3001 55.9 47.3001C55.1 46.4001 54.5 45.4001 54.1 44.3001C53.6 44.9001 53.1 45.5001 52.4 45.9001C51 46.9001 49.2 47.5001 47.5 47.5001C46.7 47.5001 45.9 47.4001 45.1 47.2001C43 46.6001 41.2 45.1001 40.2 43.2001C40 42.8001 39.8 42.4001 39.7 42.0001C39.2 42.6001 38.6 43.2001 38 43.7001C36.6 44.7001 34.8 45.3001 33.1 45.3001C32.3 45.3001 31.5 45.2001 30.7 45.0001C28.6 44.4001 26.8 42.9001 25.8 41.0001C25.3 40.0001 24.9 39.0001 24.9 37.9001C23.9 38.1001 23 38.2001 22 38.2001H16.2V41.8001C26.7 44.9001 30.6 52.4001 32 58.3001C32.7 61.3001 32.9 64.1001 32.9 66.3001H30.8C30.8 64.2001 30.7 61.5001 30 58.8001C29.1 55.2001 27.6 52.2001 25.4 49.8001C22.7 46.7001 19 44.6001 14.3 43.6001H14.1V36.0001H22C22.8 36.0001 23.7 35.9001 24.5 35.8001C24.5 35.8001 24.5 35.8001 24.6 35.8001H24.7C25.6 35.6001 26.4 35.4001 27.2 35.1001H27.3C27.4 35.1001 27.6 35.0001 27.7 34.9001C27.7 34.9001 27.8 34.9001 27.8 34.8001C27.9 34.8001 28.1 34.7001 28.2 34.6001C28.5 34.5001 28.8 34.3001 29 34.2001C29 34.2001 29 34.2001 29.1 34.2001C29.2 34.1001 29.4 34.1001 29.4 34.0001C29.4 34.0001 29.5 33.9001 29.6 33.9001C29.7 33.8001 29.8 33.7001 29.9 33.7001C29.9 33.7001 30 33.7001 30 33.6001C30.3 33.3001 30.7 33.1001 31 32.8001L31.1 32.7001C31.2 32.6001 31.3 32.6001 31.4 32.4001C31.5 32.3001 31.5 32.3001 31.6 32.2001C31.7 32.1001 31.8 32.0001 31.9 31.9001C31.9 31.9001 32 31.8001 32 31.7001C32.1 31.6001 32.3 31.4001 32.4 31.3001C32.5 31.2001 32.5 31.2001 32.6 31.1001C32.6 31.0001 32.7 31.0001 32.8 30.9001C32.9 30.8001 32.9 30.7001 33 30.6001C33.1 30.5001 33.1 30.4001 33.2 30.3001C33.2 30.2001 33.3 30.1001 33.4 30.0001C33.4 29.9001 33.5 29.9001 33.5 29.8001C33.6 29.7001 33.6 29.6001 33.8 29.4001C33.8 29.3001 33.9 29.2001 34 29.1001C34.1 28.9001 34.2 28.8001 34.2 28.7001C34.2 28.6001 34.3 28.6001 34.3 28.5001C34.4 28.4001 34.4 28.3001 34.5 28.2001C34.5 28.1001 34.6 28.0001 34.6 28.0001C34.6 27.9001 34.7 27.8001 34.8 27.6001C34.8 27.6001 34.8 27.6001 34.8 27.5001V27.4001C34.9 27.2001 35 27.0001 35 26.8001V26.7001C35 26.7001 35 26.7001 35 26.6001C35.1 26.4001 35.1 26.3001 35.2 26.2001C35.2 26.1001 35.2 26.1001 35.3 26.0001C35.3 25.9001 35.4 25.7001 35.4 25.6001C35.4 25.5001 35.4 25.5001 35.4 25.4001C35.4 25.2001 35.5 25.1001 35.5 24.9001C35.5 24.9001 35.5 24.9001 35.5 24.8001C35.5 24.8001 35.5 24.8001 35.5 24.7001C35.5 24.5001 35.6 24.3001 35.6 24.1001V24.0001C35.6 24.0001 35.6 24.0001 35.6 23.9001C35.6 23.7001 35.6 23.6001 35.7 23.4001C35.7 23.3001 35.7 23.3001 35.7 23.2001C35.7 23.1001 35.7 22.9001 35.7 22.7001V22.6001V22.5001C35.7 22.4001 35.7 22.2001 35.7 22.1001H6.7C5.7 22.1001 4.7 22.3001 3.8 22.8001C3.6 22.9001 3.4 23.0001 3.2 23.1001C3.1 23.1001 3 23.2001 2.9 23.3001C2.6 23.5001 2.4 23.7001 2.1 23.9001C2 24.0001 1.9 24.0001 1.9 24.1001C1.4 24.6001 0.899998 25.3001 0.599998 26.0001C0.599998 26.1001 0.5 26.2001 0.5 26.3001C0.2 27.1001 0 28.0001 0 28.9001V52.5001C0 53.2001 0.100003 54.0001 0.300003 54.7001C0.500003 55.2001 0.700002 55.6001 0.900002 56.1001C1.1 56.4001 1.3 56.8001 1.6 57.1001C1.7 57.2001 1.8 57.3001 1.9 57.4001C2 57.5001 2.1 57.6001 2.2 57.7001L15.1 70.9001V99.0001H54.3V71.8001L68.3 57.5001C68.5 57.3001 68.7 57.2001 68.8 57.0001C69.9 55.8001 70.6 54.1001 70.6 52.3001V39.9001L69.4 43.9001C69.3 45.6001 68.3 47.1001 66.8 48.2001Z" fill="black"/>
<path d="M42.3 35.1C42.3 35.2 42 36.3 41.8 36.9C41.7 37.2 41.7 37.4 41.6 37.5C40.6 40.8 42.5 44.2 45.7 45.2C46.3 45.4 46.9 45.5 47.5 45.5C48.8 45.5 50.1 45.1 51.2 44.3C52.3 43.5 53.1 42.4 53.5 41.1L54 39.2L60.2 18.3C60.6 17 59.8 15.5 58.5 15.2L51.5 13.1C51.3 13 51 13 50.8 13C49.7 13 48.7 13.7 48.4 14.8L42.3 35.1Z" fill="black"/>
<path d="M38.2999 19.6999V21.4999C38.2999 25.0999 37.1999 28.4999 34.9999 31.3999C33.9999 32.7999 32.6999 33.9999 31.2999 34.9999C29.8999 35.9999 28.3999 36.6999 26.8999 37.1999C26.9999 38.3999 27.3999 39.5999 28.0999 40.5999C28.8999 41.6999 29.9999 42.4999 31.2999 42.7999C31.8999 42.9999 32.4999 43.0999 33.0999 43.0999C34.3999 43.0999 35.6999 42.6999 36.7999 41.8999C37.8999 41.0999 38.6999 39.9999 39.0999 38.6999L40.1999 34.8999L47.0999 11.6999C47.4999 10.3999 46.6999 8.8999 45.3999 8.5999L38.3999 6.4999C38.1999 6.3999 37.8999 6.3999 37.6999 6.3999C36.5999 6.3999 35.5999 7.0999 35.2999 8.1999L31.8999 19.6999C31.6999 19.6999 38.2999 19.6999 38.2999 19.6999Z" fill="black"/>
<path d="M33.8001 5.3C34.0001 4.7 33.9001 4 33.6001 3.4C33.3001 2.8 32.7001 2.4 32.1001 2.2L25.1001 0.1C24.9001 3.7998e-07 24.6001 0 24.4001 0C23.3001 0 22.3001 0.699999 22.0001 1.8L16.6001 19.7H29.4001L33.8001 5.3Z" fill="black"/>
<path d="M71.5999 21.7L64.5999 19.6C64.3999 19.5 64.0999 19.5 63.8999 19.5C62.7999 19.5 61.7999 20.2 61.4999 21.3L56.1999 39.1C56.0999 39.3 56.0999 39.4 55.9999 39.6C54.9999 42.9 56.8999 46.3 60.0999 47.3C60.6999 47.5 61.2999 47.6 61.8999 47.6C63.1999 47.6 64.4999 47.2 65.5999 46.4C66.6999 45.6 67.4999 44.5 67.8999 43.2L73.3999 24.8C73.6999 23.6 72.8999 22.2 71.5999 21.7Z" fill="black"/>
</svg>
