<svg width="106" height="79" viewBox="0 0 106 79" fill="none" xmlns="http://www.w3.org/2000/svg">
<path d="M73.7398 37.1701L44.0698 19.8601C43.6674 19.6166 43.1989 19.5047 42.7298 19.5401C42.1409 19.5855 41.591 19.852 41.1904 20.286C40.7898 20.72 40.5681 21.2895 40.5698 21.8801V56.5001C40.5694 56.9095 40.6773 57.3118 40.8826 57.666C41.0879 58.0202 41.3833 58.3138 41.7388 58.5169C42.0943 58.7201 42.4972 58.8255 42.9066 58.8225C43.316 58.8196 43.7173 58.7083 44.0698 58.5001L73.7498 41.1901C74.0934 40.9814 74.3774 40.6878 74.5745 40.3375C74.7716 39.9872 74.8751 39.592 74.8751 39.1901C74.8751 38.7882 74.7716 38.393 74.5745 38.0427C74.3774 37.6924 74.0934 37.3988 73.7498 37.1901L73.7398 37.1701ZM45.2398 52.4301V25.9501L67.9598 39.1901L45.2398 52.4301Z" fill="black" stroke="black" stroke-width="1.42" stroke-miterlimit="10"/>
<path d="M89.89 1H15.7C11.8047 1.00528 8.07025 2.55435 5.3149 5.30783C2.55954 8.06131 1.00794 11.7947 1 15.69V62.69C1.00529 66.5871 2.55573 70.323 5.31137 73.0786C8.06701 75.8343 11.8029 77.3847 15.7 77.39H89.88C93.7788 77.3874 97.5173 75.8381 100.275 73.0822C103.033 70.3262 104.585 66.5888 104.59 62.69V15.69C104.582 11.7947 103.03 8.06131 100.275 5.30783C97.5197 2.55435 93.7853 1.00528 89.89 1V1ZM99.89 62.68C99.9007 63.9962 99.6493 65.3013 99.1505 66.5194C98.6517 67.7375 97.9155 68.8441 96.9848 69.7748C96.0541 70.7055 94.9475 71.4417 93.7294 71.9405C92.5113 72.4393 91.2062 72.6907 89.89 72.68H15.7C14.3838 72.6907 13.0787 72.4393 11.8606 71.9405C10.6425 71.4417 9.53589 70.7055 8.60517 69.7748C7.67445 68.8441 6.93826 67.7375 6.43949 66.5194C5.94072 65.3013 5.68934 63.9962 5.7 62.68V15.69C5.68934 14.3738 5.94072 13.0687 6.43949 11.8506C6.93826 10.6325 7.67445 9.52589 8.60517 8.59517C9.53589 7.66446 10.6425 6.92827 11.8606 6.42949C13.0787 5.93072 14.3838 5.67934 15.7 5.69H89.88C91.1962 5.67934 92.5013 5.93072 93.7194 6.42949C94.9375 6.92827 96.0441 7.66446 96.9748 8.59517C97.9055 9.52589 98.6417 10.6325 99.1405 11.8506C99.6393 13.0687 99.8907 14.3738 99.88 15.69L99.89 62.68Z" fill="black" stroke="black" stroke-width="1.42" stroke-miterlimit="10"/>
</svg>
