<svg width="80" height="109" viewBox="0 0 80 109" fill="none" xmlns="http://www.w3.org/2000/svg">
<path d="M48.6002 57.6L39.7002 47.3L30.7002 57.6H48.6002Z" fill="black"/>
<path d="M22.2001 27.1001C18.1001 31.4001 15.6001 37.3001 15.6001 43.7001C15.6001 50.1001 18.1001 56.0001 22.2001 60.3001L36.6001 43.7001L22.2001 27.1001Z" fill="black"/>
<path d="M30.7002 29.8999L39.7002 40.1999L48.6002 29.8999H30.7002Z" fill="black"/>
<path d="M52.4999 25.5001H55.4999C51.2999 21.8001 45.6999 19.6001 39.6999 19.6001C33.6999 19.6001 28.0999 21.8001 23.8999 25.5001H26.8999H52.4999Z" fill="black"/>
<path d="M42.7998 43.7001L57.1998 60.3001C61.2998 56.0001 63.7998 50.1001 63.7998 43.7001C63.7998 37.3001 61.2998 31.4001 57.1998 27.1001L42.7998 43.7001Z" fill="black"/>
<path d="M53.2999 62H25.5999H24.1999H23.8999C28.0999 65.7 33.6999 67.9 39.6999 67.9C45.7999 67.9 51.2999 65.7 55.4999 62H55.1999H53.2999Z" fill="black"/>
<path d="M0 0V87.4H23.9L39.5 109L55.1 87.4H79.4V0H0ZM39.7 72.3C23.9 72.3 11.2 59.5 11.2 43.7C11.2 27.9 24 15.1 39.7 15.1C55.5 15.1 68.3 27.9 68.3 43.7C68.2 59.5 55.5 72.3 39.7 72.3Z" fill="black"/>
</svg>
