<svg width="26" height="22" viewBox="0 0 26 22" fill="none" xmlns="http://www.w3.org/2000/svg">
<path d="M17.4806 1H8.51916C5.4759 1 3 3.47601 3 6.51928V15.4807C3 18.5241 5.4759 21 8.51916 21H17.4806C20.5241 21 23 18.524 23 15.4807V6.51928C23.0001 3.47601 20.5241 1 17.4806 1ZM21.2256 15.4807C21.2256 17.5456 19.5456 19.2255 17.4807 19.2255H8.51916C6.45435 19.2256 4.7745 17.5456 4.7745 15.4807V6.51928C4.7745 4.45447 6.45435 2.7745 8.51916 2.7745H17.4806C19.5455 2.7745 21.2255 4.45447 21.2255 6.51928V15.4807H21.2256Z" fill="black"/>
<path d="M12.9999 5.84674C10.1583 5.84674 7.84644 8.15855 7.84644 11.0002C7.84644 13.8418 10.1583 16.1535 12.9999 16.1535C15.8416 16.1535 18.1534 13.8418 18.1534 11.0002C18.1534 8.15855 15.8416 5.84674 12.9999 5.84674ZM12.9999 14.3789C11.1368 14.3789 9.62093 12.8632 9.62093 11.0001C9.62093 9.13689 11.1367 7.62112 12.9999 7.62112C14.8632 7.62112 16.3789 9.13689 16.3789 11.0001C16.3789 12.8632 14.863 14.3789 12.9999 14.3789Z" fill="black"/>
<path d="M18.3697 4.3421C18.0278 4.3421 17.6919 4.48051 17.4505 4.72303C17.2078 4.96436 17.0684 5.30033 17.0684 5.6434C17.0684 5.9854 17.208 6.32126 17.4505 6.56377C17.6918 6.8051 18.0278 6.9447 18.3697 6.9447C18.7127 6.9447 19.0475 6.8051 19.29 6.56377C19.5325 6.32126 19.671 5.98529 19.671 5.6434C19.671 5.30033 19.5325 4.96436 19.29 4.72303C19.0487 4.48051 18.7127 4.3421 18.3697 4.3421Z" fill="black"/>
</svg>
