<svg width="32" height="22" viewBox="0 0 32 22" fill="none" xmlns="http://www.w3.org/2000/svg">
<path d="M26.9487 1H5.30769C4.03682 1 3 2.03569 3 3.30769V18.6923C3 19.96 4.03221 21 5.30769 21H26.9487C28.2164 21 29.2564 19.9678 29.2564 18.6923V3.30769C29.2564 2.04 28.2242 1 26.9487 1ZM26.6301 2.53846L16.1771 12.9914L5.63379 2.53846H26.6301ZM4.53846 18.3737V3.61892L11.9476 10.9646L4.53846 18.3737ZM5.62631 19.4615L13.0402 12.0477L15.6379 14.6232C15.9387 14.9213 16.4239 14.9204 16.7234 14.6208L19.2564 12.0878L26.6301 19.4615H5.62631ZM27.7179 18.3737L20.3443 11L27.7179 3.62626V18.3737Z" fill="black"/>
</svg>
