<svg width="31" height="22" viewBox="0 0 31 22" fill="none" xmlns="http://www.w3.org/2000/svg">
<path fill-rule="evenodd" clip-rule="evenodd" d="M10.8626 21C20.2965 21 25.4565 13.3044 25.4565 6.63153C25.4565 6.41246 25.4565 6.19505 25.4415 5.97845C26.4453 5.26464 27.3116 4.37836 28.0003 3.36428C27.0653 3.77287 26.0715 4.04082 25.0553 4.15896C26.1253 3.52762 26.9266 2.53574 27.3103 1.36535C26.3028 1.95362 25.2015 2.3688 24.0528 2.59156C22.1102 0.558447 18.8615 0.459942 16.7952 2.37244C15.4639 3.60559 14.8977 5.44421 15.3114 7.19794C11.1876 6.99365 7.34506 5.07626 4.74002 1.922C3.37876 4.22954 4.07501 7.18044 6.32879 8.6622C5.51253 8.63881 4.71377 8.42244 4.00001 8.03108V8.09517C4.00126 10.4987 5.72253 12.5683 8.11507 13.0446C7.36006 13.2476 6.56755 13.2771 5.80004 13.1306C6.47129 15.1884 8.39757 16.5978 10.5913 16.6384C8.77507 18.0438 6.5313 18.807 4.22127 18.8045C3.81376 18.8033 3.40626 18.7799 3 18.7319C5.34628 20.2137 8.07506 21 10.8626 20.9963" fill="black"/>
</svg>
