<svg width="26" height="22" viewBox="0 0 26 22" fill="none" xmlns="http://www.w3.org/2000/svg">
<path d="M21.4689 11C21.4689 13.2488 20.5838 15.3062 19.1483 16.8134L14.1005 11L19.1483 5.1866C20.5838 6.7177 21.4689 8.7512 21.4689 11ZM13 2.55503C15.1053 2.55503 17.0431 3.3445 18.5263 4.61244H17.4737H8.52632H7.47368C8.95694 3.3445 10.8947 2.55503 13 2.55503ZM6.8756 5.1866L11.9234 11L6.8756 16.8134C5.4402 15.3062 4.55503 13.2488 4.55503 11C4.55503 8.7512 5.4402 6.7177 6.8756 5.1866ZM13 9.77991L9.86603 6.16746H16.1339L13 9.77991ZM13 12.244L16.1339 15.8565H9.86603L13 12.244ZM13 19.4689C10.8708 19.4689 8.95694 18.6794 7.47368 17.4115H7.59331H8.07177H17.7847H18.4306H18.5503C17.067 18.6794 15.1291 19.4689 13 19.4689ZM23 11C23 5.47368 18.5263 1 13 1C7.47368 1 3 5.47368 3 11C3 16.5263 7.47368 21 13 21C18.5263 21 23 16.5263 23 11Z" fill="black"/>
</svg>
